<?xml version="1.0" encoding="utf-8"?><svg xmlns:xlink="http://www.w3.org/1999/xlink" id="Scene_1" image-rendering="auto" baseProfile="basic" version="1.1" x="0px" y="0px" width="100" height="100" viewBox="0 0 100 100" xmlns="http://www.w3.org/2000/svg"><g><g id="Symbol_10" transform="matrix(1 0 0 1 52.25 30.4)"><animateTransform attributeName="transform" additive="replace" type="translate" begin="indefinite" dur="1s" keyTimes="0;0.55;0.567;0.583;0.6;0.617;0.633;0.65;1" values="52.25,29.9;52.25,29.9;52.25,30.05;52.25,30.15;52.25,30.25;52.25,30.3;52.25,30.35;52.25,30.4;52.25,30.4" calcMode="discrete"/><animateTransform attributeName="transform" additive="sum" type="scale" begin="indefinite" dur="1s" keyTimes="0;0.55;0.567;0.583;0.6;0.617;0.633;0.65;1" values="0.56,0.56;0.56,0.56;0.676,0.676;0.775,0.775;0.857,0.857;0.922,0.922;0.969,0.969;1,1;1,1" calcMode="discrete"/><path fill="#FFF" d="M17.8,-4Q15,-6.85 11.1,-6.85 9.75,-6.85 8.75,-6.6 7.65,-9.3 5.3,-10.95 2.9,-12.6 0,-12.6 -2.9,-12.6 -5.3,-10.95 -7.7,-9.3 -8.75,-6.6 -9.8,-6.85 -11.1,-6.85 -15.05,-6.85 -17.8,-4 -20.6,-1.15 -20.6,2.85 -20.6,6.85 -17.8,9.7 -15,12.6 -11.1,12.6L11.1,12.6Q15,12.6 17.8,9.7 20.6,6.85 20.6,2.85 20.6,-1.15 17.8,-4"/></g><animate attributeName="display" begin="indefinite" repeatCount="1" dur="1s" keyTimes="0;0.55;1" values="none;inline;none"/></g><g><use xlink:href="#Symbol_9" width="118" height="118" x="-59" y="-59" overflow="visible" transform="matrix(1.05 0 0 1.05 63.1 33.45)"><animateTransform attributeName="transform" additive="replace" type="translate" begin="indefinite" dur="1s" keyTimes="0;0.233;1" values="63.1,33.45;63.1,33.45;63.1,33.45" calcMode="discrete"/><animateTransform attributeName="transform" additive="sum" type="scale" begin="indefinite" dur="1s" keyTimes="0;0.233;0.25;0.267;0.283;0.5;0.517;0.533;0.55;0.567;1" values="0.06,0.06;0.06,0.06;0.183,0.183;0.263,0.263;0.3,0.3;0.3,0.3;0.487,0.487;0.675,0.675;0.862,0.862;1.05,1.05;1.05,1.05" calcMode="discrete"/></use><animate attributeName="display" begin="indefinite" repeatCount="1" dur="1s" keyTimes="0;0.233;1" values="none;inline;none"/></g><g><use xlink:href="#Symbol_9" width="118" height="118" x="-59" y="-59" overflow="visible" transform="matrix(1.05 0 0 1.05 52.3 27.6)"><animateTransform attributeName="transform" additive="replace" type="translate" begin="indefinite" dur="1s" keyTimes="0;0.133;0.367;0.383;0.4;0.417;0.433;0.45;0.5;0.517;0.533;1" values="52.3,33.5;52.3,33.5;52.3,33.5;52.3,32.8;52.3,31.85;52.3,30.65;52.3,29.25;52.3,27.6;52.3,27.6;52.25,27.6;52.3,27.6;52.3,27.6" calcMode="discrete"/><animateTransform attributeName="transform" additive="sum" type="scale" begin="indefinite" dur="1s" keyTimes="0;0.133;0.15;0.167;0.183;0.45;0.467;0.483;0.5;0.517;0.533;0.55;1" values="0.06,0.06;0.06,0.06;0.183,0.183;0.263,0.263;0.3,0.3;0.3,0.3;0.508,0.508;0.683,0.683;0.825,0.825;0.933,0.933;1.008,1.008;1.05,1.05;1.05,1.05" calcMode="discrete"/></use><animate attributeName="display" begin="indefinite" repeatCount="1" dur="1s" keyTimes="0;0.133;1" values="none;inline;none"/></g><g><use xlink:href="#Symbol_9" width="118" height="118" x="-59" y="-59" overflow="visible" transform="matrix(1.05 0 0 1.05 41.5 33.45)"><animateTransform attributeName="transform" additive="replace" type="translate" begin="indefinite" dur="1s" keyTimes="0;0.067;0.483;0.5;0.517;1" values="41.5,33.45;41.5,33.45;41.5,33.45;41.45,33.45;41.5,33.45;41.5,33.45" calcMode="discrete"/><animateTransform attributeName="transform" additive="sum" type="scale" begin="indefinite" dur="1s" keyTimes="0;0.067;0.083;0.1;0.117;0.4;0.417;0.433;0.45;0.467;0.483;0.5;0.517;0.533;1" values="0.06,0.06;0.06,0.06;0.183,0.183;0.263,0.263;0.3,0.3;0.3,0.3;0.394,0.394;0.487,0.487;0.581,0.581;0.675,0.675;0.769,0.769;0.862,0.862;0.956,0.956;1.05,1.05;1.05,1.05" calcMode="discrete"/></use><animate attributeName="display" begin="indefinite" repeatCount="1" dur="1s" keyTimes="0;0.067;1" values="none;inline;none"/></g><g mask="url(#Scene_1_5_39)" style="display:none;"><g id="Symbol_8" transform="matrix(1 0 0 1 48.75 45.5)"><path fill="#FFF" d="M-4.8,3.3Q-5.05,3.65 -4.85,4.05 -4.65,4.4 -4.25,4.4 -2.8,4.25 2.45,0.95L5,-2.5Q3.4,-6.2 -0.55,-2.5L-4.8,3.3"/></g><animate attributeName="display" begin="indefinite" repeatCount="1" dur="1s" keyTimes="0;0.65;0.883;1" values="none;inline;none;none"/></g><mask id="Scene_1_5_39" style="display:none;"><g id="Symbol_4_copy_mask" transform="matrix(1 0 0 1 48.05 46)"><animateTransform attributeName="transform" additive="replace" type="translate" begin="indefinite" dur="1s" keyTimes="0;0.65;0.667;0.683;0.7;0.717;0.733;0.8833333333333333;1" values="58.25,37.7;58.25,37.7;56.2,39.35;54.15,41;52.15,42.7;50.1,44.35;48.05,46;48.05,46;48.05,46" calcMode="discrete"/><path fill="#FFF" d="M10.85,-1.45Q14.781,-5.081 9.8,-9.1 5.105,-14.725 -0.85,-8.1L-4.8,3.3Q-5.05,3.65 -4.85,4.05 -4.65,4.4 -4.25,4.4 -2.8,4.25 10.85,-1.45" fill-opacity="1"/></g><animate attributeName="display" begin="indefinite" repeatCount="1" dur="1s" keyTimes="0;0.65;0.883;1" values="none;inline;none;none"/></mask><g mask="url(#Scene_1_3_43)" style="display:none;"><g id="Symbol_7" transform="matrix(1 0 0 1 51.85 48.15)"><path fill="#FFF" d="M6.95,-0.2L7.25,-0.6Q7.5,-0.95 7.3,-1.3 7.1,-1.7 6.7,-1.7L-0.65,-1.7Q-5.3,-0.45 -7.35,1.75L1.35,1.75Q3.8,1.4 6.95,-0.2"/></g><animate attributeName="display" begin="indefinite" repeatCount="1" dur="1s" keyTimes="0;0.717;0.883;1" values="none;inline;none;none"/></g><mask id="Scene_1_3_43" style="display:none;"><g id="Symbol_4_copy_mask" transform="matrix(-0.859 -0.512 0.512 -0.859 54.55 47.7)"><animateTransform attributeName="transform" additive="replace" type="translate" begin="indefinite" dur="1s" keyTimes="0;0.717;0.733;0.75;0.767;0.783;0.8833333333333333;1" values="37.25,49.2;37.25,49.2;41.65,48.85;45.95,48.45;50.3,48.1;54.55,47.7;54.55,47.7;54.55,47.7" calcMode="discrete"/><animateTransform attributeName="transform" additive="sum" type="rotate" begin="indefinite" dur="1s" keyTimes="0;0.717;0.733;0.767;0.783;0.8833333333333333;1" values="-149.233,0,0;-149.233,0,0;-149.196,0,0;-149.196,0,0;-149.233,0,0;-149.233,0,0;-149.233,0,0" calcMode="discrete"/><animateTransform attributeName="transform" additive="sum" type="scale" begin="indefinite" dur="1s" keyTimes="0;0.717;0.733;0.767;0.783;0.8833333333333333;1" values="0.999,0.999;0.999,0.999;0.997,0.997;0.997,0.997;0.999,0.999;0.999,0.999;0.999,0.999" calcMode="discrete"/><path fill="#FFF" d="M10.85,-1.45Q14.781,-5.081 9.8,-9.1 5.105,-14.725 -0.85,-8.1L-4.8,3.3Q-5.05,3.65 -4.85,4.05 -4.65,4.4 -4.25,4.4 -2.8,4.25 10.85,-1.45" fill-opacity="1"/></g><animate attributeName="display" begin="indefinite" repeatCount="1" dur="1s" keyTimes="0;0.717;0.883;1" values="none;inline;none;none"/></mask><g mask="url(#Scene_1_1_46)" style="display:none;"><g id="Symbol_6" transform="matrix(1 0 0 1 54.2 53.5)"><path fill="#FFF" d="M-4.5,4.75Q-4.75,5.3 -4.2,5.6 -3.7,5.95 -3.35,5.4L4.6,-5.55Q1.35,-6.4 -1,-3.6L-4.5,4.75"/></g><animate attributeName="display" begin="indefinite" repeatCount="1" dur="1s" keyTimes="0;0.767;0.883;1" values="none;inline;none;none"/></g><mask id="Scene_1_1_46" opacity="9999999999999.99" style="display:none;"><g id="Symbol_4_copy_mask" transform="matrix(0.947 -0.321 0.321 0.947 52.25 54.7)"><animateTransform attributeName="transform" additive="replace" type="translate" begin="indefinite" dur="1s" keyTimes="0;0.767;0.783;0.8;0.817;0.833;0.8833333333333333;1" values="60.35,40.6;60.35,40.6;58.45,44.15;56.3,47.65;54.3,51.25;52.25,54.7;52.25,54.7;52.25,54.7" calcMode="discrete"/><animateTransform attributeName="transform" additive="sum" type="rotate" begin="indefinite" dur="1s" keyTimes="0;0.767;0.783;0.8;0.817;0.833;0.8833333333333333;1" values="-30.737,0,0;-30.737,0,0;-27.599,0,0;-24.593,0,0;-21.585,0,0;-18.742,0,0;-18.742,0,0;-18.742,0,0" calcMode="discrete"/><animateTransform attributeName="transform" additive="sum" type="scale" begin="indefinite" dur="1s" keyTimes="0;0.767;0.783;0.8;0.817;0.833;0.8833333333333333;1" values="0.999,0.999;0.999,0.999;0.997,0.997;0.998,0.998;0.998,0.998;0.999,0.999;0.999,0.999;0.999,0.999" calcMode="discrete"/><path fill="#FFF" d="M10.85,-1.45Q14.781,-5.081 9.8,-9.1 5.105,-14.725 -0.85,-8.1L-4.8,3.3Q-5.05,3.65 -4.85,4.05 -4.65,4.4 -4.25,4.4 -2.8,4.25 10.85,-1.45" fill-opacity="1"/></g><animate attributeName="display" begin="indefinite" repeatCount="1" dur="1s" keyTimes="0;0.767;0.883;1" values="none;inline;none;none"/></mask><g id="Scene 1_0.55"><path fill="#FFF" d="M58.55,46.45L51.2,46.45 53.75,43Q52.169,39.316 48.2,43L43.95,48.8Q43.7,49.15 43.9,49.55 44.1,49.9 44.5,49.9L53.2,49.9 49.7,58.25Q49.45,58.8 50,59.1 50.5,59.45 50.85,58.9L59.1,47.55Q59.35,47.2 59.15,46.85 58.95,46.45 58.55,46.45"/><animate attributeName="display" begin="indefinite" repeatCount="1" dur="1s" keyTimes="0;0.917;1" values="none;inline;none"/></g><defs><symbol id="Symbol_4_copy_mask" viewBox="-54.95 -61.7 117.55 116.1"><path fill="#00F" d="M10.85,-1.45Q14.781,-5.081 9.8,-9.1 5.105,-14.725 -0.85,-8.1L-4.8,3.3Q-5.05,3.65 -4.85,4.05 -4.65,4.4 -4.25,4.4 -2.8,4.25 10.85,-1.45"/>
</symbol><symbol id="Symbol_9" viewBox="-58.95 -58.95 117.9 117.9"><path fill="#FFF" d="M6.3,-6.35Q3.7,-8.95 0,-8.95 -3.7,-8.95 -6.35,-6.35 -8.95,-3.7 -8.95,0 -8.95,3.7 -6.35,6.3 -3.7,8.95 0,8.95 3.7,8.95 6.3,6.3 8.95,3.7 8.95,0 8.95,-3.7 6.3,-6.35"/>
</symbol></defs></svg>