<?xml version="1.0" encoding="utf-8"?><svg xmlns:xlink="http://www.w3.org/1999/xlink" id="Scene_1" image-rendering="auto" baseProfile="basic" version="1.1" x="0px" y="0px" width="100" height="100" viewBox="0 0 100 100" xmlns="http://www.w3.org/2000/svg"><g id="Scene 1_1.0.0"><path fill="#405063" d="M69.85,23.2Q69.85,19.1 66.95,16.2 64.1,13.3 60,13.3L49.45,13.3Q48.6,11.7 47.2,10.55 45.75,9.45 43.95,9.05L43.9,9 43.75,9Q43.55,9 43.35,9.15 43.2,9.35 43.2,9.55 43.2,9.75 43.3,9.9 43.4,10.05 43.55,10.1 45.5,11.15 46.65,13.05 47.85,14.95 47.85,17.25L54.55,17.25Q57.9,17.25 60.25,19.6 62.65,21.95 62.65,25.3L62.65,27.85Q62.65,28.9 61.9,29.6 61.2,30.35 60.2,30.35L19.3,30.35Q18.3,30.35 17.55,29.6 16.85,28.9 16.85,27.85L16.85,25.3Q16.85,21.95 19.2,19.6 21.6,17.25 24.95,17.25L31.65,17.25Q31.65,15.15 32.65,13.3L19.85,13.3Q15.8,13.3 12.9,16.2 10,19.1 10,23.2L10,73.85Q10,77.95 12.9,80.85 15.8,83.7 19.85,83.7L60.5,83.7Q64.55,83.7 67.45,80.85 69.15,79.15 69.85,77.05L69.85,23.2 M58.95,36.65Q59.7,37.35 59.7,38.4L59.7,72.65Q59.7,73.7 58.95,74.4 58.25,75.1 57.25,75.1L23.1,75.1Q22.1,75.1 21.4,74.4 20.65,73.7 20.65,72.65L20.65,38.4Q20.65,37.747 20.975,37.2 21.14,36.91 21.4,36.65 22.1,35.95 23.1,35.95L57.2,35.95Q58.25,35.95 58.95,36.65"/><g transform="matrix(0.2 0 0 0.2 36.2 13.4)"><path fill="#405063" d="M5.2,30.35Q10.4,35.55 17.7,35.55 25.1,35.55 30.3,30.35 35.5,25.15 35.5,17.8 35.5,10.45 30.3,5.25 25.1,0 17.7,0 10.4,0 5.2,5.2 0,10.4 0,17.8 0,25.15 5.2,30.35"/></g></g><g id="Scene 1_0.0.0"><path fill="#405063" d="M85.9,52.25Q85.7,52.05 85.35,52.05 85.05,52.05 84.85,52.25L83.55,53.55Q83.35,53.75 83.35,54.05 83.35,54.35 83.55,54.55L83.9,54.9 82.9,55.9Q82.888,55.924 82.875,55.95 79.276,52.809 74.8,51.75 76.1,50.7 76.85,49.15 77.6,47.6 77.6,45.85 77.6,42.7 75.4,40.45 73.15,38.2 70,38.2L69.85,38.25 69.85,38.2Q66.85,38.25 64.65,40.45 62.45,42.7 62.45,45.85 62.45,47.6 63.2,49.15 63.945,50.688 65.225,51.725 60.741,52.789 57.1,55.925L57.1,55.9 56.15,54.9 56.45,54.55Q56.669,54.375 56.7,54.125L56.7,53.975Q56.669,53.725 56.45,53.55L55.15,52.25Q54.967,52.067 54.7,52.05L54.65,52.05Q54.35,52.05 54.15,52.25L51.05,55.35Q50.85,55.55 50.85,55.85 50.85,56.15 51.05,56.35L52.35,57.65Q52.55,57.85 52.85,57.85L52.9,57.85Q53.171,57.833 53.4,57.65L53.75,57.3 54.65,58.2Q54.704,58.248 54.75,58.3 50.1,63.757 50.1,71.15 50.1,79.4 55.9,85.2 61.75,91.05 70,91.05 78.25,91.05 84.05,85.2 89.95,79.4 89.95,71.15 89.95,63.787 85.25,58.325 85.275,58.319 85.3,58.3L86.3,57.3 86.65,57.65Q86.85,57.85 87.15,57.85 87.45,57.85 87.7,57.65L89,56.35Q89.2,56.15 89.2,55.85 89.2,55.55 89,55.35L85.9,52.25"/><path fill="#FFF" d="M70,40.7Q67.9,40.7 66.4,42.2 64.9,43.7 64.9,45.85 64.9,47.5 65.85,48.85 66.8,50.15 68.35,50.7L68.35,47.4 67.85,47.4Q67.55,47.4 67.35,47.15 67.15,46.95 67.15,46.65L67.15,44.8Q67.15,44.5 67.35,44.3 67.55,44.1 67.85,44.1L72.25,44.1Q72.55,44.1 72.75,44.3 72.95,44.5 72.95,44.8L72.95,46.65Q72.95,46.95 72.75,47.15 72.55,47.4 72.25,47.4L71.75,47.4 71.75,50.65Q73.25,50.1 74.2,48.8 75.15,47.5 75.15,45.85 75.15,43.7 73.65,42.2 72.15,40.7 70,40.7"/><path fill="#FFF" d="M80.7,60.4Q76.25,55.95 70,55.95 63.75,55.95 59.3,60.4 54.85,64.85 54.85,71.1 54.85,77.4 59.3,81.8 63.75,86.25 70,86.25 76.25,86.25 80.7,81.8 85.15,77.4 85.15,71.1 85.15,64.85 80.7,60.4"/><g transform="matrix(0.2 0 0 0.2 65.9 58.45)"><path fill="#405063" d="M2.4,9.1Q4.15,10.15 6.15,9.6 8.1,9.1 9.1,7.35 10.15,5.6 9.6,3.6 9.1,1.65 7.3,0.65 5.55,-0.35 3.65,0.15 1.65,0.7 0.65,2.45 -0.35,4.2 0.15,6.15 0.7,8.1 2.4,9.1"/></g><g transform="matrix(0.2 0 0 0.2 72.15 58.45)"><path fill="#405063" d="M9.1,2.45Q8.1,0.7 6.15,0.15 4.2,-0.35 2.45,0.65 0.65,1.65 0.15,3.6 -0.35,5.6 0.65,7.35 1.65,9.1 3.6,9.6 5.55,10.15 7.3,9.1 9.1,8.1 9.6,6.15 10.15,4.2 9.1,2.45"/></g><g transform="matrix(0.2 0 0 0.2 77.6 61.6)"><path fill="#405063" d="M4.85,0.05Q2.85,0.05 1.4,1.45 0,2.9 0,4.9 0,6.95 1.4,8.35 2.85,9.8 4.85,9.8 6.9,9.8 8.3,8.35 9.75,6.95 9.75,4.9 9.75,2.9 8.3,1.45 6.9,0.05 4.85,0.05"/></g><g transform="matrix(0.2 0 0 0.2 80.75 67)"><path fill="#405063" d="M2.45,9.15Q4.2,10.15 6.15,9.65 8.1,9.1 9.1,7.35 10.15,5.6 9.6,3.65 9.1,1.7 7.35,0.7 5.6,-0.35 3.65,0.15 1.65,0.7 0.65,2.45 -0.35,4.2 0.15,6.15 0.65,8.1 2.45,9.15"/></g><g transform="matrix(0.2 0 0 0.2 80.75 73.3)"><path fill="#405063" d="M0.65,7.35Q1.65,9.1 3.65,9.6 5.6,10.15 7.35,9.15 9.1,8.15 9.6,6.15 10.15,4.2 9.1,2.45 8.1,0.7 6.15,0.15 4.2,-0.35 2.45,0.65 0.7,1.65 0.15,3.6 -0.35,5.6 0.65,7.35"/></g><g transform="matrix(0.2 0 0 0.2 77.6 78.7)"><path fill="#405063" d="M4.85,0Q2.85,0 1.4,1.45 0,2.9 0,4.9 0,6.95 1.4,8.35 2.85,9.8 4.85,9.8 6.9,9.8 8.3,8.35 9.75,6.95 9.75,4.9 9.75,2.9 8.3,1.45 6.9,0 4.85,0"/></g><g transform="matrix(0.2 0 0 0.2 72.15 81.85)"><path fill="#405063" d="M9.6,3.6Q9.1,1.65 7.3,0.65 5.55,-0.35 3.6,0.15 1.65,0.7 0.65,2.4 -0.35,4.15 0.15,6.1 0.7,8.1 2.4,9.1 4.15,10.15 6.15,9.6 8.1,9.1 9.1,7.3 10.15,5.55 9.6,3.6"/></g><g transform="matrix(0.2 0 0 0.2 65.9 81.85)"><path fill="#405063" d="M9.1,2.4Q8.1,0.7 6.15,0.15 4.15,-0.35 2.4,0.65 0.7,1.65 0.15,3.6 -0.35,5.55 0.65,7.3 1.65,9.1 3.65,9.6 5.55,10.15 7.3,9.1 9.1,8.1 9.6,6.1 10.15,4.15 9.1,2.4"/></g><g transform="matrix(0.2 0 0 0.2 60.5 78.7)"><path fill="#405063" d="M4.9,0Q2.9,0 1.45,1.45 0,2.9 0,4.9 0,6.95 1.45,8.35 2.9,9.8 4.9,9.8 6.95,9.8 8.35,8.35 9.8,6.95 9.8,4.9 9.8,2.9 8.35,1.45 6.95,0 4.9,0"/></g><g transform="matrix(0.2 0 0 0.2 57.35 73.3)"><path fill="#405063" d="M9.65,3.6Q9.15,1.65 7.35,0.65 5.6,-0.35 3.65,0.15 1.7,0.7 0.7,2.45 -0.3,4.2 0.2,6.15 0.7,8.15 2.5,9.15 4.25,10.15 6.2,9.6 8.15,9.1 9.15,7.35 10.2,5.6 9.65,3.6"/></g><g transform="matrix(0.2 0 0 0.2 57.35 67)"><path fill="#405063" d="M9.15,2.45Q8.15,0.7 6.2,0.15 4.25,-0.35 2.5,0.7 0.75,1.7 0.2,3.65 -0.3,5.6 0.7,7.35 1.7,9.1 3.65,9.65 5.6,10.15 7.35,9.15 9.15,8.1 9.65,6.15 10.2,4.2 9.15,2.45"/></g><g transform="matrix(0.2 0 0 0.2 60.45 61.55)"><path fill="#405063" d="M4.85,0.05Q2.85,0.05 1.4,1.45 0,2.9 0,4.9 0,6.95 1.4,8.35 2.85,9.8 4.85,9.8 6.9,9.8 8.3,8.35 9.75,6.95 9.75,4.9 9.75,2.9 8.3,1.45 6.9,0.05 4.85,0.05"/></g></g><defs/></svg>