<?xml version="1.0" encoding="utf-8"?><svg xmlns:xlink="http://www.w3.org/1999/xlink" id="Scene_1" image-rendering="auto" baseProfile="basic" version="1.1" x="0px" y="0px" width="100" height="100" viewBox="0 0 100 100" xmlns="http://www.w3.org/2000/svg"><g id="Scene 1_5.0"><path fill="#405063" d="M81.85,13.25Q81.85,12.75 81.5,12.4 81.1,12.05 80.6,12.05L26.7,12.05Q26.2,12.05 25.8,12.4 25.45,12.75 25.45,13.25L25.45,79.45Q25.45,79.95 25.8,80.3 26.2,80.7 26.7,80.7L80.6,80.7Q81.1,80.7 81.5,80.3 81.85,79.95 81.85,79.45L81.85,13.25"/><path fill="#405063" d="M19.35,19.4Q18.8,19.4 18.45,19.75 18.1,20.1 18.1,20.65L18.1,86.8Q18.1,87.3 18.45,87.7 18.8,88.05 19.35,88.05L73.25,88.05Q73.75,88.05 74.1,87.7 74.5,87.3 74.5,86.8L74.5,81.9 26.7,81.9Q25.65,81.9 24.95,81.2 24.25,80.45 24.25,79.45L24.25,19.4 19.35,19.4"/></g><g><g id="Symbol_1" transform="matrix(1 0 0 1 36.5 31.65)"><path fill="#FFF" d="M33.1,-1.2L1.2,-1.2Q0.7,-1.2 0.35,-0.85 0,-0.5 0,0 0,0.5 0.35,0.85 0.7,1.25 1.2,1.25L33.1,1.25Q33.6,1.25 33.95,0.85 34.3,0.5 34.3,0 34.3,-0.5 33.95,-0.85 33.6,-1.2 33.1,-1.2"/></g></g><defs/></svg>