<?xml version="1.0" encoding="utf-8"?><svg xmlns:xlink="http://www.w3.org/1999/xlink" id="Scene_1" image-rendering="auto" baseProfile="basic" version="1.1" x="0px" y="0px" width="100" height="100" viewBox="0 0 100 100" xmlns="http://www.w3.org/2000/svg"><g mask="url(#Scene_1_1_25)"><g id="Symbol_2" transform="matrix(1 0 0 1 2.45 47.35)" opacity="0"><animateTransform attributeName="transform" additive="replace" type="translate" begin="indefinite" dur="1.167s" keyTimes="0;0.357;0.371;0.386;0.4;0.414;0.428;0.443;0.457;0.471;0.486;0.5;0.514;0.528;0.543;0.557;0.571;0.586;0.6;0.614;0.628;0.643;0.657;0.671;0.686;0.7;0.714;0.728;0.743;0.757;0.771;0.785;0.8;0.814;0.828;0.843;0.985;1" values="44.95,23.4;44.95,23.4;44.95,23.25;44.95,23.1;44.95,23;44.95,22.85;44.95,22.7;44.95,22.55;44.95,22.45;44.95,22.3;44.95,22.15;42.4,23.75;39.85,25.3;37.25,26.9;34.7,28.45;32.15,30.05;29.6,31.6;27,33.2;24.45,34.75;21.9,36.35;19.3,37.9;16.75,39.5;14.2,41.05;11.65,42.65;9.1,44.2;6.5,45.8;3.95,47.35;3.8,47.35;3.6,47.35;3.45,47.35;3.3,47.35;3.1,47.35;2.95,47.35;2.8,47.35;2.6,47.35;2.45,47.35;2.45,47.35;2.45,47.35" calcMode="discrete"/><animate attributeName="opacity" begin="indefinite" dur="1.167s" keyTimes="0;0.357;0.371;0.386;0.4;0.414;0.428;0.443;0.457;0.471;0.486;0.843;0.857;0.985;1" values="0;0;0.11;0.22;0.33;0.45;0.55;0.67;0.78;0.89;1;1;0;0;0" calcMode="discrete"/><path fill="#FFF" d="M29.6,-2.5Q28.6,-3.25 27.25,-3.25 25.75,-3.25 24.7,-2.2 23.65,-1.15 23.65,0.35 23.65,1.1 23.8,1.35L17.2,5.75Q16.25,5 14.9,5 13.4,5 12.35,6.05 11.3,7.1 11.3,8.6 11.3,9.35 11.45,9.6L-0.05,17.35Q-1,16.6 -2.35,16.6 -3.25,16.6 -4.05,16.95L-10.35,10.4Q-9.85,9.35 -9.85,8.6 -9.85,7.05 -10.9,6 -11.95,5 -13.45,5 -14.5,5.25 -15,5.5L-26.5,-7Q-26,-8.05 -26,-8.8 -26,-10.35 -27.05,-11.4 -28.15,-12.4 -29.6,-12.4 -30.5,-12.4 -31.3,-12.05L-37.6,-18.6Q-37.05,-19.65 -37.05,-20.4 -37.05,-21.95 -38.15,-23 -39.2,-24 -40.7,-24 -42.2,-24 -43.25,-22.95 -44.3,-21.9 -44.3,-20.4 -44.3,-19.65 -44.15,-19.35L-55.6,-11.65Q-56.6,-12.4 -57.95,-12.4 -59.45,-12.4 -60.5,-11.35 -61.55,-10.3 -61.55,-8.8 -61.55,-8.05 -61.4,-7.8L-64.5,-5.7 -63.75,-3.4 -60.25,-5.7Q-59.3,-4.95 -57.95,-4.95 -56.45,-4.95 -55.4,-6 -54.35,-7.05 -54.35,-8.55 -54.35,-9.3 -54.5,-9.55L-43,-17.3Q-42.05,-16.55 -40.7,-16.55 -39.8,-16.55 -39,-16.9L-32.7,-10.35Q-33.2,-9.3 -33.2,-8.55 -33.2,-7 -32.15,-5.95 -31.1,-4.95 -29.6,-4.95 -28.55,-5.2 -28.05,-5.45L-16.55,7.05Q-17.05,8.1 -17.05,8.85 -17.05,10.4 -16,11.45 -14.9,12.45 -13.45,12.45 -12.55,12.45 -11.75,12.1L-5.45,18.65Q-6,19.7 -6,20.45 -6,22 -4.9,23.05 -3.85,24.05 -2.35,24.05 -0.85,24.05 0.2,23 1.25,21.95 1.25,20.45 1.25,19.7 1.1,19.4L12.55,11.7Q13.55,12.45 14.9,12.45 16.4,12.45 17.45,11.4 18.5,10.35 18.5,8.85 18.5,8.1 18.35,7.85L24.95,3.45Q25.9,4.2 27.25,4.2 28.75,4.2 29.8,3.15 30.85,2.1 30.85,0.6 30.85,-0.15 30.7,-0.4L42.2,-8.15Q43.15,-7.4 44.5,-7.4 45.4,-7.4 46.2,-7.75L52.5,-1.2Q52,-0.15 52,0.6 52,2.15 53.05,3.2 54.1,4.2 55.6,4.2 56.65,3.95 57.15,3.7L62.8,9.9 64.55,8.45 58.7,2.15Q59.2,1.1 59.2,0.35 59.2,-1.2 58.15,-2.25 57.05,-3.25 55.6,-3.25 54.7,-3.25 53.9,-2.9L47.6,-9.45Q48.15,-10.5 48.15,-11.25 48.15,-12.8 47.05,-13.85 46,-14.85 44.5,-14.85 43,-14.85 41.95,-13.8 40.9,-12.75 40.9,-11.25 40.9,-10.5 41.05,-10.2L29.6,-2.5"/></g><animate attributeName="display" begin="indefinite" repeatCount="1" dur="1.167s" keyTimes="0;0.357;1" values="none;inline;none"/></g><mask id="Scene_1_1_25" opacity="9999999999999.99"><path fill="#FFF" d="M59.65,27.7Q53.15,21.2 43.9,21.2 34.7,21.2 28.2,27.7 21.7,34.2 21.7,43.45 21.7,52.65 28.2,59.15 34.7,65.65 43.9,65.65 53.15,65.65 59.65,59.15 66.15,52.65 66.15,43.45 66.15,34.2 59.65,27.7" fill-opacity="1"/><animate attributeName="display" begin="indefinite" repeatCount="1" dur="1.167s" keyTimes="0;0.357;1" values="none;inline;none"/></mask><g id="Scene 1_0.60"><path fill="#FFF" d="M50.6,36.1Q50.6,34.55 49.5,33.5 48.45,32.5 46.95,32.5 45.45,32.5 44.4,33.55 43.35,34.6 43.35,36.1 43.35,36.85 43.5,37.15L32.05,44.85Q31.05,44.1 29.7,44.1 28.2,44.1 27.15,45.15 26.1,46.2 26.1,47.7 26.1,48.45 26.25,48.7L22.925,50.925Q23.319,52.063 23.85,53.15L27.4,50.8Q28.35,51.55 29.7,51.55 31.2,51.55 32.25,50.5 33.3,49.45 33.3,47.95 33.3,47.2 33.15,46.95L44.65,39.2Q45.6,39.95 46.95,39.95 47.85,39.95 48.65,39.6L54.95,46.15Q54.45,47.2 54.45,47.95 54.45,49.5 55.5,50.55 56.55,51.55 58.05,51.55 59.1,51.3 59.6,51.05L63.05,54.85Q63.675,53.83 64.175,52.75L61.15,49.5Q61.65,48.45 61.65,47.7 61.65,46.15 60.6,45.1 59.5,44.1 58.05,44.1 57.15,44.1 56.35,44.45L50.05,37.9Q50.6,36.85 50.6,36.1"/><animate attributeName="display" begin="indefinite" repeatCount="1" dur="1.167s" keyTimes="0;0.857;1" values="none;inline;none"/></g><defs/></svg>