<?xml version="1.0" encoding="utf-8"?><svg xmlns:xlink="http://www.w3.org/1999/xlink" id="Scene_1" image-rendering="auto" baseProfile="basic" version="1.1" x="0px" y="0px" width="100" height="100" viewBox="0 0 100 100" xmlns="http://www.w3.org/2000/svg"><g mask="url(#Scene_1_1_0)"><g><g id="Symbol_3" transform="matrix(1 0 0 1 50 50)"><animateTransform attributeName="transform" additive="replace" type="translate" begin="indefinite" dur="0.417s" keyTimes="0;0.16;0.2;0.24;0.28;0.32;0.36;0.4;0.44;0.48;0.52;0.56;0.6;0.639;0.679;0.719;0.759;0.799;0.839;0.879;0.919;0.959;0.9992006394884093;1" values="50,86;50,86;50,84.2;50.05,82.45;50,80.6;50,78.8;50,77;50.05,75.25;50,73.4;50,71.6;50,69.8;50.05,68.05;50,66.2;50,64.4;50,62.6;50.05,60.85;50,59;50,57.2;50,55.4;50.05,53.65;50,51.8;50,50;50,50;50,50" calcMode="discrete"/><animateTransform attributeName="transform" additive="sum" type="scale" begin="indefinite" dur="0.417s" keyTimes="0;0.16;0.2;0.24;0.28;0.32;0.36;0.4;0.44;0.48;0.52;0.56;0.6;0.639;0.679;0.719;0.759;0.799;0.839;0.879;0.919;0.959;0.9992006394884093;1" values="1.6,1.6;1.6,1.6;1.57,1.57;1.54,1.54;1.51,1.51;1.48,1.48;1.45,1.45;1.42,1.42;1.39,1.39;1.36,1.36;1.33,1.33;1.3,1.3;1.27,1.27;1.24,1.24;1.21,1.21;1.18,1.18;1.15,1.15;1.12,1.12;1.09,1.09;1.06,1.06;1.03,1.03;1,1;1,1;1,1" calcMode="discrete"/><path fill="#405063" d="M31.4,10.25Q31.05,9.75 30.6,9.55L30.15,9.45Q29.55,8.45 28.55,7.9 26.95,7 25.15,7.2 24.45,7.2 23.8,7.45 23,7.7 22.3,8.2 21.5,8.75 20.75,9.5 19.55,10.7 19.15,12.4 18.8,13.8 19.15,15.25 19.2,15.7 19.35,16.1 18.85,16.05 18.65,16.5 18.35,17.1 18.8,18.55 19.3,20.55 19.9,20.6 20.15,21.85 20.75,22.85L20.75,25.65Q20.75,25.85 20.6,25.9 16.1,28.15 12.1,31.35 11.65,31.75 11.35,32.35 11.1,32.9 11.1,33.55L11.1,37.6 40,37.6 40,33.55Q40,32.9 39.75,32.35 39.45,31.75 38.95,31.35 35,28.15 30.5,25.9 30.35,25.85 30.35,25.65L30.35,22.8Q30.95,21.8 31.15,20.6 31.75,20.6 32.35,18.55 32.75,17.1 32.5,16.5 32.3,16.1 31.75,16.1 31.9,15.7 32,15.2 32.55,11.75 31.4,10.25"/><path fill="#405063" d="M-18.75,18.55Q-18.35,17.1 -18.6,16.5 -18.8,16.1 -19.35,16.1 -19.2,15.7 -19.1,15.2 -18.5,11.75 -19.65,10.25 -20,9.75 -20.5,9.55L-20.9,9.45Q-21.5,8.45 -22.55,7.9 -24.15,7 -25.95,7.2 -26.6,7.2 -27.3,7.45 -28.1,7.7 -28.8,8.2 -29.6,8.75 -30.3,9.5 -31.55,10.7 -31.95,12.4 -32.3,13.8 -31.95,15.25 -31.9,15.7 -31.75,16.15 -32.25,16.1 -32.45,16.55 -32.75,17.15 -32.35,18.6 -31.75,20.6 -31.15,20.65 -30.95,21.85 -30.35,22.9L-30.35,25.7Q-30.35,25.85 -30.5,25.9 -35,28.2 -38.95,31.35 -39.45,31.75 -39.75,32.35 -40,32.95 -40,33.55L-40,37.65 -11.05,37.65 -11.05,33.55Q-11.05,32.95 -11.35,32.35 -11.6,31.75 -12.1,31.35 -16.1,28.15 -20.6,25.9 -20.75,25.85 -20.75,25.65L-20.75,22.8Q-20.1,21.75 -19.9,20.6 -19.3,20.6 -18.75,18.55"/></g><animate attributeName="display" begin="indefinite" repeatCount="1" dur="0.417s" keyTimes="0;0.161;1" values="none;inline;none"/></g><g><g id="Symbol_2" transform="matrix(1 0 0 1 50.05 60.75)"><animateTransform attributeName="transform" additive="replace" type="translate" begin="indefinite" dur="0.417s" keyTimes="0;0.6;0.639;0.679;0.719;0.759;0.799;0.839;0.879;0.919;0.959;0.9992006394884093;1" values="50.05,80.25;50.05,80.25;50.05,78.1;50.05,75.9;50.05,73.75;50.05,71.6;50.05,69.4;50.05,67.25;50.05,65.1;50.05,62.9;50.05,60.75;50.05,60.75;50.05,60.75" calcMode="discrete"/><animateTransform attributeName="transform" additive="sum" type="scale" begin="indefinite" dur="0.417s" keyTimes="0;0.6;0.639;0.679;0.719;0.759;0.799;0.839;0.879;0.919;0.959;0.9992006394884093;1" values="0.254,0.254;0.254,0.254;0.337,0.337;0.42,0.42;0.503,0.503;0.586,0.586;0.668,0.668;0.751,0.751;0.834,0.834;0.917,0.917;1,1;1,1;1,1" calcMode="discrete"/><path fill="#405063" d="M1.95,-11.35L-1.9,-11.35 -1.9,1.45 -13.1,8 -11.15,11.3 -0.1,4.9 11.15,11.35 13.1,8 1.95,1.6 1.95,-11.35"/></g><animate attributeName="display" begin="indefinite" repeatCount="1" dur="0.417s" keyTimes="0;0.6;1" values="none;inline;none"/></g></g><mask id="Scene_1_1_0" opacity="9999999999999.99"><g id="mask" transform="matrix(1 0 0 1 50 96.25)"><path fill="#FFF" d="M40.2,-86.5Q34.2,-92.5 25.7,-92.5L-25.7,-92.5Q-34.2,-92.5 -40.25,-86.5 -46.25,-80.45 -46.25,-71.95L-46.25,-20.55Q-46.25,-12.05 -40.25,-6.05 -34.2,0 -25.7,0L25.7,0Q34.2,0 40.2,-6.05 46.25,-12.05 46.25,-20.55L46.25,-71.95Q46.25,-80.45 40.2,-86.5" fill-opacity="1"/></g></mask><defs/></svg>