<?xml version="1.0" encoding="utf-8"?><svg xmlns:xlink="http://www.w3.org/1999/xlink" id="Scene_1" image-rendering="auto" baseProfile="basic" version="1.1" x="0px" y="0px" width="100" height="100" viewBox="0 0 100 100" xmlns="http://www.w3.org/2000/svg"><g><g id="Symbol_2" transform="matrix(1 0 0 1 48.9 53.2)"><g transform="matrix(0.2 0 0 0.2 -17.049 -17.649)"><path fill="#405063" d="M171.1,66.05Q168.05,54.5 162.1,44.15 156.2,33.95 147.85,25.65L130.95,35.45Q121.25,27.1 108.85,22.7L108.85,3.2Q97.2,0 85.55,0 73.8,0 62.25,3.2L62.25,22.7Q49.9,27.05 40.15,35.45L23.25,25.65Q14.9,33.95 9,44.15 3,54.5 0,66.05L16.85,75.8Q15.6,82.3 15.6,88.55 15.6,94.8 16.85,101.3L0,111.05Q3,122.6 9,132.95 14.9,143.15 23.25,151.4L40.15,141.65Q49.9,150.05 62.25,154.4L62.25,173.9Q73.8,177.1 85.55,177.1 97.2,177.1 108.85,173.9L108.85,154.4Q121.25,150 130.95,141.65L147.85,151.4Q156.2,143.15 162.1,132.95 168.05,122.6 171.1,111.05L154.25,101.3Q155.45,94.65 155.45,88.55 155.45,82.45 154.25,75.8L171.1,66.05 M118.15,88.55Q118.15,102.05 108.6,111.65 99.05,121.2 85.55,121.2 72,121.2 62.45,111.65 52.9,102.05 52.9,88.55 52.9,75.05 62.45,65.5 72,55.9 85.55,55.9 99.05,55.9 108.6,65.5 118.15,75.05 118.15,88.55"/></g></g></g><defs/></svg>