<?xml version="1.0" encoding="utf-8"?><svg xmlns:xlink="http://www.w3.org/1999/xlink" id="Scene_1" image-rendering="auto" baseProfile="basic" version="1.1" x="0px" y="0px" width="100" height="100" viewBox="0 0 100 100" xmlns="http://www.w3.org/2000/svg"><g><g id="Symbol_1" transform="matrix(1 0 0 1 49.95 50.05)"><path fill="#405063" d="M13.25,-37.85Q9.15,-39.4 4.7,-39.85 0.5,-40.25 -3.4,-39.65 -10.3,-38.55 -15.35,-35.2 -20.45,-31.85 -23.3,-26.45 -24.75,-23.4 -25.2,-21.35L-25.5,-20.35Q-25.5,-20.3 -25.5,-20.15 -25.55,-20.05 -25.55,-20L-25.75,-18.85Q-26.25,-15.85 -25.85,-12.15L-25.85,-11.45Q-25.85,-10.5 -26.25,-9.65L-31.15,0.8Q-31.6,1.75 -31.55,2.85 -31.45,3.9 -30.9,4.9 -30.35,5.85 -29.35,6.4 -28.4,6.9 -27.25,6.9L-25.15,6.9 -26.15,11.7Q-26.55,13.4 -25.9,15.15L-25.7,15.65Q-24.8,18.15 -25.2,20.9 -25.35,21.85 -25.15,22.7 -24.95,23.6 -24.45,24.35 -23.95,25.05 -23.15,25.5 -22.4,26 -21.5,26.1L-14.35,27.2 -14.35,38.65Q-14.35,39.4 -13.7,39.7 -13.55,39.85 -13.35,39.9 -13.1,40 -12.95,40 -12.6,40 -12.5,39.95L19.6,28.35Q20.1,28.2 20.4,27.6 20.65,27.05 20.4,26.5 17.2,18.6 19.55,13.25 20.1,11.95 21.05,10.75 21.6,10 22.5,9.15L22.75,8.85Q28.7,3 30.65,-4 32.6,-10.95 30.55,-18.85L30.25,-20Q30.2,-20.2 30.2,-20.25 30.15,-20.35 30.05,-20.7 29.95,-21.1 29.9,-21.15 29.9,-21.3 29.85,-21.35 29.1,-23.85 27.45,-26.45 22.65,-34.35 13.25,-37.85"/></g></g><defs/></svg>