<?xml version="1.0" encoding="utf-8"?><svg xmlns:xlink="http://www.w3.org/1999/xlink" id="Scene_1" image-rendering="auto" baseProfile="basic" version="1.1" x="0px" y="0px" width="100" height="100" viewBox="0 0 100 100" xmlns="http://www.w3.org/2000/svg"><g id="Scene 1_1.0"><g transform="matrix(0.2 0 0 0.2 10 9.55)"><path fill="#405063" d="M340.15,169.4Q340.15,135 326.8,103.55 313.95,73.15 290.5,49.7 267,26.2 236.6,13.35 205.15,0 170.75,0 136.3,0 104.65,13.35 74.05,26.2 50.35,49.7 26.6,73.15 13.55,103.55 0,135.05 0,169.4 0,203.8 13.35,235.25 26.25,265.65 49.7,289.15 73.15,312.6 103.55,325.45 135.05,338.8 169.45,338.8 193.05,338.8 215.9,332.2 238.6,325.65 259,313.05L262.85,310.45 329.85,391Q330.25,391.8 330.8,392.2 331.1,392.45 331.75,392.9L332.4,393.55Q344.9,405.05 361.8,404.45 378.55,403.8 389.75,391.65 400.9,379.05 399.95,362.25 399.05,345.4 386.5,334.3L308.6,267.3 311.15,263.45Q325.25,242.6 332.65,218.6 340.15,194.4 340.15,169.4 M221.6,45.9Q245.65,56.1 264.2,74.6 282.7,93.15 292.9,117.2 303.4,142.1 303.4,169.4 303.9,187.75 299.15,205.3 294.4,222.85 284.75,238.3 275.65,253.6 262.35,266.2 249.35,278.5 233.2,287.3 218.55,295.1 202.55,299.2 186.15,303.4 169.45,303.4 142.15,303.4 117.25,292.9 93.2,282.7 74.65,264.2 56.15,245.65 45.95,221.6 35.45,196.7 35.45,169.4 35.45,142.1 45.95,117.2 56.15,93.15 74.65,74.6 93.2,56.1 117.25,45.9 142.15,35.4 169.45,35.4 196.75,35.4 221.6,45.9"/></g></g><g id="Scene 1_0.0"><g transform="matrix(1.047 0 0 1.047 21.65 21.15)"><g transform="matrix(1 0 0 1 -28.8 -23.6)"><path fill="#405063" d="M71.2,44.8Q71.2,36 65,29.8 58.8,23.6 50,23.6 41.2,23.6 35,29.8 28.8,36 28.8,44.8 28.8,53.6 35,59.8 41.2,66 50,66 58.8,66 65,59.8 71.2,53.6 71.2,44.8"/></g></g></g><defs/></svg>