<?xml version="1.0" encoding="utf-8"?><svg xmlns:xlink="http://www.w3.org/1999/xlink" id="Scene_1" image-rendering="auto" baseProfile="basic" version="1.1" x="0px" y="0px" width="70" height="35" viewBox="0 0 70 35" xmlns="http://www.w3.org/2000/svg"><g id="Scene 1_0.0"><path fill="#4F5762" d="M67.65,22.85L67.65,22.4Q67.2,22.45 66.45,21.95 64.95,20.95 63.6,18.25L55.95,1.85 48.55,1.85 48.55,2.5Q49.45,2.4 50.75,2.7 52.45,3.3 53.9,5.35 54.65,6.4 55,7.3L59.9,18.5Q60.25,19.25 60.4,19.65 60.55,20.35 60.4,20.9 60.1,22 58.95,22.3 57.8,22.5 57.8,22.45L57.8,22.85 67.65,22.85"/><path fill="#4F5762" d="M46.4,1.85L40.9,1.85Q40.5,1.85 40.1,2.15 39.35,2.8 39.35,4.55L39.35,19Q39.35,19.85 39.25,20.3 39.1,20.75 38.55,21.45 37.8,22.3 36.95,22.3L36.5,22.3 36.5,22.75 53.6,22.75 53.6,22.3 53.2,22.3Q52.7,22.3 52.2,22.15 51.5,21.7 51.15,21.35 50.35,20.55 49.8,19.15 49.6,18.65 49.45,17.85 49.3,16.9 49.2,16.4 49.1,15.85 49.05,16.05L48.8,16.9Q48.45,18.65 47.8,19.85 47.05,21.25 45.8,22.05 45.65,22.15 45.55,22.15 45.5,22.15 45.45,22.15 44.65,21.9 44.1,21.4 43.1,20.55 43.1,19L43.1,5.75Q43.1,4.4 43.9,3.45 44.25,3.05 45,2.8 45.7,2.5 46.4,2.5L46.4,1.85"/><path fill="#4F5762" d="M51.15,27.9L52.7,27.9 52.7,32.2 53.3,32.2 53.3,27.9 54.85,27.9 54.85,27.35 51.15,27.35 51.15,27.9"/><path fill="#4F5762" d="M43.25,32.2L43.85,32.2 43.85,27.35 43.25,27.35 43.25,31.15 40.45,27.35 39.8,27.35 39.8,32.2 40.4,32.2 40.4,28.35 43.25,32.2"/><path fill="#4F5762" d="M62.65,28.6Q62.65,28.25 62.9,28.05 63.2,27.8 63.65,27.8 64.5,27.8 65.05,28.4L65.4,27.95Q64.8,27.3 63.7,27.3 62.95,27.3 62.5,27.65 62,28.05 62,28.65 62,29.55 63.45,29.95 64.9,30.35 64.9,30.95 64.9,31.25 64.65,31.5 64.35,31.75 63.75,31.75 62.8,31.75 62.2,31.1L61.85,31.55Q62.55,32.3 63.75,32.3 64.65,32.3 65.1,31.9 65.5,31.5 65.5,30.9 65.5,29.9 64.05,29.5 62.65,29.05 62.65,28.6"/><path fill="#4F5762" d="M24.55,5.35Q25.3,6.4 25.7,7.3L26.05,8.1 26.05,8.15 32,21.2 33.8,17.55 26.6,1.85 19.2,1.85 19.2,2.5Q20.15,2.4 21.4,2.7 23.1,3.3 24.55,5.35"/><path fill="#4F5762" d="M23.8,16.05L23.6,16.9Q23.2,18.7 22.6,19.85 21.8,21.25 20.6,22.05 20.1,22.3 19.5,22.3L19.05,22.3 19.05,22.75 28.4,22.75 28.4,22.3 27.95,22.3Q27.45,22.3 27,22.15 26.25,21.7 25.95,21.35 25.15,20.6 24.6,19.15 24.4,18.65 24.25,17.85 24.1,16.9 24,16.4 23.85,15.85 23.8,16.05"/><path fill="#4F5762" d="M11.2,1.85Q10.85,1.85 10.45,2.15 9.7,2.8 9.7,4.55L9.7,19Q9.7,19.85 9.55,20.3 9.4,20.75 8.85,21.45 8.15,22.3 7.25,22.3L6.8,22.3 6.8,22.75 16.5,22.75 16.5,22.25Q16.5,22.3 15.8,22.15 15,21.9 14.45,21.4 13.4,20.55 13.4,19L13.4,5.75Q13.4,4.4 14.25,3.45 14.55,3.05 15.3,2.8 16.05,2.5 16.75,2.5L16.75,1.85 11.2,1.85"/><path fill="#4F5762" d="M8.45,2.4L8.45,1.85 3.2,1.85 3.15,1.9 3.15,6.85 3.7,6.85Q3.7,6.1 3.7,6 3.75,5.5 3.85,5.15 4.15,4.35 4.85,3.65 5.45,3 6.25,2.65 6.7,2.5 7.45,2.4 7.75,2.4 7.9,2.4L8.45,2.4"/><path fill="#4F5762" d="M19.25,32.2L20,32.2 22,27.35 21.3,27.35 19.65,31.55 18,27.35 17.3,27.35 19.25,32.2"/><path fill="#4F5762" d="M10.35,27.9L10.35,27.35 7.15,27.35 7.15,32.2 10.35,32.2 10.35,31.7 7.75,31.7 7.75,30 10.3,30 10.3,29.45 7.75,29.45 7.75,27.9 10.35,27.9"/><path fill="#4F5762" d="M32.3,27.9L32.3,27.35 29.15,27.35 29.15,32.2 32.3,32.2 32.3,31.7 29.75,31.7 29.75,30 32.3,30 32.3,29.45 29.75,29.45 29.75,27.9 32.3,27.9"/></g><defs/></svg>