<?xml version="1.0" encoding="utf-8"?><svg xmlns:xlink="http://www.w3.org/1999/xlink" id="Scene_1" image-rendering="auto" baseProfile="basic" version="1.1" x="0px" y="0px" width="70" height="60" viewBox="0 0 70 60" xmlns="http://www.w3.org/2000/svg"><g id="Scene 1_0.0"><path fill="#4D5156" d="M43.35,9.2Q42.4,7.7 40.85,6.85 40.25,4.8 38.55,3.6 36.8,2.25 34.65,2.25 32.4,2.25 30.65,3.65 28.9,5 28.35,7.1 27,8 26.2,9.4 25.4,10.9 25.4,12.6 25.4,15 27,16.85 28.55,18.65 30.9,19L30.85,19.35 30.85,20.4Q30.85,21.1 31.4,21.6 31.9,22.1 32.6,22.1L33.75,22.1 33.75,55Q33.75,55.45 34.05,55.8 34.35,56.1 34.8,56.1 35.25,56.1 35.6,55.8 35.95,55.45 35.95,55L35.95,22.1 37.05,22.1Q37.75,22.1 38.3,21.6 38.8,21.1 38.8,20.4L38.8,19.35 38.75,19Q41.1,18.65 42.7,16.85 44.25,15 44.25,12.6 44.25,10.75 43.35,9.2 M34.8,5.05Q36.3,5.05 37.3,6.1 38.35,7.1 38.35,8.6 38.35,9.1 38.2,9.55 39.4,9.85 40.2,10.75 41,11.75 41,13 41,14.45 39.95,15.5 38.95,16.55 37.5,16.55 35.9,16.55 34.8,15.35 33.75,16.55 32.2,16.55 30.7,16.55 29.65,15.5 28.65,14.45 28.65,13 28.65,11.75 29.45,10.75 30.25,9.85 31.45,9.55 31.3,9.1 31.3,8.6 31.3,7.1 32.35,6.1 33.35,5.05 34.8,5.05"/><path fill="#4D5156" d="M41.7,22.05Q40.85,22.7 40.75,23.85 40.6,25 41.3,25.8 42.15,26.7 43.95,27.25L43.95,29.9Q43.95,30.3 44.25,30.55 44.45,30.75 44.85,30.75L45.95,30.75 45.95,55Q45.95,55.45 46.25,55.8 46.6,56.1 47.1,56.1 47.6,56.1 47.95,55.8 48.25,55.45 48.25,55L48.25,30.75 49.35,30.75Q49.7,30.75 49.95,30.55 50.2,30.3 50.2,29.9L50.2,27.25Q52,26.75 52.9,25.8 53.6,25 53.45,23.85 53.35,22.7 52.5,22.05 51.85,21.6 51.05,21.6 50.5,21.6 49.5,21.95 48.4,22.3 47.5,22.4L46.7,22.4Q45.85,22.3 44.7,21.95 43.7,21.6 43.15,21.6 42.3,21.6 41.7,22.05 M42.45,23.05Q42.9,22.6 43.55,22.6 44.2,22.6 44.65,23.05 45.05,23.5 45.05,24.15 45.05,24.8 44.65,25.25 44.2,25.65 43.55,25.65 42.9,25.65 42.45,25.25 42,24.8 42,24.15 42,23.5 42.45,23.05 M49.75,23.05Q50.2,22.6 50.85,22.6 51.45,22.6 51.9,23.05 52.35,23.5 52.35,24.15 52.35,24.8 51.9,25.25 51.45,25.65 50.85,25.65 50.2,25.65 49.75,25.25 49.3,24.8 49.3,24.15 49.3,23.5 49.75,23.05"/><path fill="#4D5156" d="M22.15,21.9L20.55,23.5Q17.6,24.2 16.25,27L14.7,28.55 16.2,30.15Q16.9,31.35 18.8,32.25 18.95,32.35 19.3,32.4 19.3,32.55 19.3,32.7L19.3,38.55Q19.3,39.15 19.7,39.55 20.1,39.9 20.65,39.9L20.95,39.9 20.95,55Q20.95,55.45 21.3,55.8 21.65,56.1 22.15,56.1 22.6,56.1 22.95,55.8 23.3,55.45 23.3,55L23.3,39.9 23.6,39.9Q24.15,39.9 24.6,39.55 25,39.15 25,38.55L25,32.7Q25,32.55 24.95,32.4 25.4,32.35 25.5,32.25 27.35,31.35 28,30.15L29.6,28.55 28,26.95Q26.65,24.3 23.8,23.55L22.15,21.9 M18.05,28Q18.05,26.9 18.8,26.15 19.55,25.4 20.65,25.4 21.45,25.4 22.15,25.85 22.8,25.4 23.65,25.4 24.7,25.4 25.45,26.15 26.2,26.9 26.2,28 26.2,29.05 25.45,29.8 24.7,30.55 23.65,30.55 22.8,30.55 22.15,30.05 21.45,30.55 20.65,30.55 19.55,30.55 18.8,29.8 18.05,29.05 18.05,28"/></g><defs/></svg>