<?xml version="1.0" encoding="utf-8"?><svg xmlns:xlink="http://www.w3.org/1999/xlink" id="Scene_1" image-rendering="auto" baseProfile="basic" version="1.1" x="0px" y="0px" width="70" height="100" viewBox="0 0 70 100" xmlns="http://www.w3.org/2000/svg"><g id="Scene 1_21.0"><g transform="matrix(0.4 0 0 0.4 25.35 2.35)"><path fill="#4D5156" d="M43.25,36.4Q47.2,31.85 47.2,25.8 47.2,21.25 44.85,17.35 42.55,13.6 38.65,11.5 37.1,6.45 32.85,3.25 28.55,0 23.1,0 17.55,0 13.15,3.45 8.8,6.85 7.4,12.15 4,14.35 2.05,17.9 0,21.55 0,25.8 0,31.85 4,36.4 7.9,40.95 13.8,41.85L13.7,42.7 13.7,45.4Q13.7,47.15 14.95,48.45 16.25,49.7 18,49.7L19.55,49.7 19.55,58.15Q19.55,59.9 20.85,61.05L20.85,131.9Q20.85,133.05 21.65,133.85 22.45,134.65 23.6,134.65 24.75,134.65 25.55,133.85 26.35,133.05 26.35,131.9L26.35,61.05Q27.65,59.9 27.65,58.15L27.65,49.7 29.15,49.7Q30.95,49.7 32.2,48.45 33.45,47.15 33.45,45.4L33.4,41.85Q39.3,40.95 43.25,36.4 M35.2,21.85Q36.9,23.95 36.9,26.65 36.9,29.8 34.7,32.05 32.45,34.25 29.3,34.25 25.9,34.25 23.6,31.65 21.35,34.25 17.9,34.25 14.75,34.25 12.55,32.05 10.3,29.8 10.3,26.65 10.3,23.95 12,21.85 13.7,19.75 16.3,19.2 16,18.25 16,17.15 16,14 18.25,11.8 20.45,9.55 23.6,9.55 26.75,9.55 29,11.8 31.2,14 31.2,17.15 31.2,18.25 30.9,19.2 33.5,19.75 35.2,21.85"/></g></g><g id="Scene 1_20.0"><g transform="matrix(0.4 0 0 0.4 14.75 22.25)"><path fill="#4D5156" d="M36.35,15.65L33.15,12.5Q29.7,5.1 21.85,3.35L18.75,0.2Q18.55,0 18.3,0 18,0 17.8,0.2L14.65,3.35Q6.75,5.15 3.35,12.5L0.15,15.7Q-0.3,16.15 0.15,16.6L3.55,19.95Q5.2,23.2 9.75,25.3L10.05,27.25Q10.65,29.25 12.2,29.35L12.2,41.25Q12.2,42.55 13.15,43.5 14.05,44.4 15.35,44.45L15.35,82.2Q15.35,83.35 16.2,84.15 17.05,84.95 18.25,84.95 19.45,84.95 20.3,84.15 21.15,83.35 21.15,82.2L21.15,44.45Q22.45,44.4 23.4,43.5 24.3,42.55 24.3,41.25L24.3,29.35Q25.85,29.25 26.45,27.25L26.75,25.3Q31.25,23.25 33,20L33,19.95 36.35,16.6Q36.8,16.15 36.35,15.65 M25,11.8Q26.55,13.35 26.55,15.5 26.55,17.65 25,19.2 23.5,20.7 21.3,20.7 19.6,20.7 18.25,19.75 16.9,20.7 15.25,20.7 13.05,20.7 11.55,19.2 10,17.65 10,15.5 10,13.35 11.55,11.8 13.1,10.25 15.25,10.25 16.9,10.25 18.25,11.2 19.6,10.25 21.3,10.25 23.5,10.25 25,11.8"/></g></g><g id="Scene 1_19.0"><g transform="matrix(0.4 0 0 0.4 40.65 21.7)"><path fill="#4D5156" d="M30.5,10.45Q32.3,8.5 31.95,5.6 31.6,2.8 29.5,1.15 27.95,-0.1 25.85,-0.05 24.45,0 22.05,0.8 19.6,1.6 17,2L15,2Q12.35,1.6 10,0.8 7.55,0 6.15,-0.05 4.1,-0.1 2.5,1.15 0.4,2.8 0.05,5.6 -0.3,8.5 1.55,10.45 4.05,13.1 9.55,14.45L9.55,18.3Q9.55,19.15 10.15,19.75 10.8,20.35 11.6,20.35L13.1,20.35 13.1,83.5Q13.1,84.65 13.95,85.45 14.8,86.25 16,86.25 17.2,86.25 18.05,85.45 18.9,84.65 18.9,83.5L18.9,20.35 20.4,20.35Q21.25,20.35 21.85,19.75 22.45,19.15 22.45,18.3L22.45,14.45Q27.9,13.25 30.5,10.45 M25.35,9.95Q23.9,9.95 22.9,8.95 21.9,7.95 21.9,6.5 21.9,5.1 22.9,4.05 23.95,3.05 25.35,3.05 26.8,3.05 27.8,4.05 28.8,5.1 28.8,6.5 28.8,7.95 27.8,8.95 26.8,9.95 25.35,9.95 M4.7,8.95Q3.7,7.95 3.7,6.5 3.7,5.1 4.7,4.05 5.75,3.05 7.15,3.05 8.6,3.05 9.65,4.05 10.65,5.05 10.65,6.5 10.65,7.95 9.65,8.95 8.6,9.95 7.15,9.95 5.7,9.95 4.7,8.95"/></g></g><g id="Scene 1_18.0"><g transform="matrix(0.4 0 0 0.4 23.1 48.05)"><path fill="#4D5156" d="M6.5,3.2L6.5,0 0,0 0,3.2 6.5,3.2"/></g></g><g id="Scene 1_17.0"><g transform="matrix(0.4 0 0 0.4 23.1 50.5)"><path fill="#4D5156" d="M4.85,4.15L4.85,0 0,0 0,4.15 4.85,4.15"/></g></g><g id="Scene 1_16.0"><g transform="matrix(0.4 0 0 0.4 35.6 48.1)"><path fill="#4D5156" d="M7.55,2.8L7.55,0 0,0 0,2.8 7.55,2.8"/></g></g><g id="Scene 1_15.0"><g transform="matrix(0.4 0 0 0.4 35.6 46.1)"><path fill="#4D5156" d="M5.1,2.8L5.1,0 0,0 0,2.8 5.1,2.8"/></g></g><g id="Scene 1_14.0"><g transform="matrix(0.4 0 0 0.4 35.65 50.1)"><path fill="#4D5156" d="M5,5.45L5,0 0,0 0,5.45 5,5.45"/></g></g><g id="Scene 1_13.0"><g transform="matrix(0.4 0 0 0.4 6.75 65.9)"><path fill="#4D5156" d="M24.45,1.6L24.45,0 10.8,0Q9.9,-0.1 8.95,0.7 7.1,2.3 7.1,6.65L7.1,42.1Q7.1,44.25 6.8,45.3 6.35,46.6 5.05,48.2 3.25,50.3 1.05,50.3L0,50.3 0,51.4 23.8,51.4 23.8,50.2Q23.8,50.25 22.1,49.9 20.1,49.3 18.75,48.1 16.3,46 16.2,42.15L16.2,9.5Q16.2,6.25 18.25,3.9 19.1,2.95 20.9,2.3 22.7,1.6 24.45,1.6"/></g></g><g id="Scene 1_12.0"><g transform="matrix(0.4 0 0 0.4 47.85 65.9)"><path fill="#4D5156" d="M13.2,8.55Q15,11.1 15.95,13.3L28,40.95Q28.9,43 29.1,43.8 29.55,45.45 29.2,46.8 28.55,49.5 25.55,50.35 22.8,50.8 22.8,50.65L22.8,51.6 47.05,51.6 47.05,50.5Q45.9,50.65 44.05,49.4 40.4,47 37.05,40.35L18.15,0 0,0 0,1.6Q2.3,1.35 5.4,2 9.6,3.55 13.2,8.55"/></g></g><g id="Scene 1_11.0"><g transform="matrix(0.4 0 0 0.4 18.8 79.85)"><path fill="#4D5156" d="M23,16.5L23,15.45 21.9,15.45Q20.7,15.45 19.55,15 17.75,14 16.95,13.15 15,11.1 13.6,7.65 13.15,6.45 12.8,4.5 12.4,2.15 12.1,0.85 11.85,-0.4 11.7,0.1L11.2,2.1 11.15,2.15Q10.2,6.5 8.65,9.35 6.8,12.85 3.75,14.85 2.5,15.45 1.1,15.45L0,15.45 0,16.5 1.5,16.5 1.5,16.55 22.3,16.55 22.25,16.5 23,16.5"/></g></g><g id="Scene 1_10.0"><g transform="matrix(0.4 0 0 0.4 43.65 79.85)"><path fill="#4D5156" d="M22.95,16.5L22.95,15.45 21.85,15.45Q20.65,15.45 19.5,15 17.7,13.95 16.9,13.15 14.9,11.05 13.6,7.65 13.1,6.45 12.75,4.5 12.35,2.15 12.05,0.85 11.8,-0.4 11.7,0.1L11.15,2.1 11.15,2.15Q10.2,6.5 8.65,9.35 6.75,12.85 3.7,14.85 2.5,15.45 1.05,15.45L0,15.45 0,16.5 1.5,16.5 1.5,16.55 22.25,16.55 22.2,16.5 22.95,16.5"/></g></g><g id="Scene 1_9.0"><g transform="matrix(0.4 0 0 0.4 35.95 65.9)"><path fill="#4D5156" d="M24.45,1.6L24.45,0 10.8,0Q9.9,-0.1 8.95,0.7 7.1,2.3 7.1,6.65L7.1,42.1Q7.1,44.25 6.8,45.3 6.35,46.6 5.05,48.2 3.25,50.3 1.05,50.3L0,50.3 0,51.4 23.8,51.4 23.8,50.2Q23.8,50.25 22.1,49.9 20.1,49.3 18.75,48.1 16.3,46 16.2,42.15L16.2,9.5Q16.2,6.25 18.25,3.9 19.1,2.95 20.9,2.3 22.7,1.6 24.45,1.6"/></g></g><g id="Scene 1_8.0"><g transform="matrix(0.4 0 0 0.4 18.95 65.9)"><path fill="#4D5156" d="M16.85,15.35L16.9,15.4 31.45,47.6 35.95,38.6 18.2,0 0,0 0,1.6Q2.3,1.35 5.4,2 9.6,3.55 13.2,8.55 15,11.1 15.95,13.3L16.85,15.35"/></g></g><g id="Scene 1_7.0"><g transform="matrix(0.4 0 0 0.4 3.15 65.9)"><path fill="#4D5156" d="M13,1.35L13,0 0,0Q0.05,0.05 0,0.05L0,12.3 1.35,12.3Q1.25,12.3 1.35,10.2 1.45,8.95 1.75,8.05 2.35,6.15 4.15,4.35 5.7,2.75 7.6,2 8.8,1.5 10.55,1.4L11.65,1.35Q12.35,1.3 13,1.35"/></g></g><g id="Scene 1_6.0"><g transform="matrix(0.4 0 0 0.4 18.5 92.7)"><path fill="#4D5156" d="M8.55,2L8.55,0 0,0 0,11.75 8.55,11.75 8.55,9.7 2.35,9.7 2.35,6.75 8.45,6.75 8.45,4.75 2.35,4.75 2.35,2 8.55,2"/></g></g><g id="Scene 1_5.0"><g transform="matrix(0.4 0 0 0.4 23.3 92.7)"><path fill="#4D5156" d="M4.85,11.75L7.7,11.75 12.55,0 9.95,0 6.25,9.2 2.65,0 0,0 4.85,11.75"/></g></g><g id="Scene 1_4.0"><g transform="matrix(0.4 0 0 0.4 29.75 92.7)"><path fill="#4D5156" d="M8.6,2L8.6,0 0,0 0,11.75 8.6,11.75 8.6,9.7 2.35,9.7 2.35,6.75 8.45,6.75 8.45,4.75 2.35,4.75 2.35,2 8.6,2"/></g></g><g id="Scene 1_3.0"><g transform="matrix(0.4 0 0 0.4 35.05 92.7)"><path fill="#4D5156" d="M10.75,11.75L10.75,0 8.45,0 8.45,7.9 2.45,0 0,0 0,11.75 2.3,11.75 2.3,3.6 8.4,11.75 10.75,11.75"/></g></g><g id="Scene 1_2.0"><g transform="matrix(0.4 0 0 0.4 40.9 92.7)"><path fill="#4D5156" d="M3.45,11.75L5.8,11.75 5.8,2 9.25,2 9.25,0 0,0 0,2 3.45,2 3.45,11.75"/></g></g><g id="Scene 1_1.0"><g transform="matrix(0.4 0 0 0.4 45.9 92.65)"><path fill="#4D5156" d="M8.4,3.35L9.55,1.65Q7.8,0 4.9,0 2.95,0 1.65,1 0.4,2 0.4,3.5 0.4,5.9 3.95,6.85 7.45,7.75 7.45,8.7 7.45,10.25 5,10.25 2.7,10.25 1.1,8.65L0,10.45Q1.7,12.25 4.95,12.25 7.3,12.25 8.6,11.25 9.8,10.25 9.8,8.55 9.8,6.05 6.3,5.1 2.75,4.2 2.75,3.45 2.75,2.8 3.35,2.4 3.95,2 4.9,2 7.05,2 8.4,3.35"/></g></g><defs/></svg>