<?xml version="1.0" encoding="utf-8"?><svg xmlns:xlink="http://www.w3.org/1999/xlink" id="Scene_1" image-rendering="auto" baseProfile="basic" version="1.1" x="0px" y="0px" width="70" height="35" viewBox="0 0 70 35" xmlns="http://www.w3.org/2000/svg"><g id="Scene 1_1.0"><path fill="#4D5156" d="M64.95,22.5Q63.5,21.55 62.15,18.9L54.7,2.95 47.5,2.95 47.5,3.6Q48.4,3.5 49.65,3.75 51.3,4.35 52.7,6.35 53.45,7.35 53.8,8.2L58.55,19.1Q58.9,19.85 59.05,20.25 59.2,20.9 59.05,21.45 58.75,22.55 57.6,22.85 56.5,23.05 56.5,22.95L56.5,23.35 66.1,23.35 66.1,22.9Q65.65,22.95 64.95,22.5"/><path fill="#4D5156" d="M45.45,3.6L45.45,2.95 40.05,2.95Q39.7,2.9 39.3,3.25 38.6,3.85 38.6,5.6L38.6,19.6Q38.6,20.45 38.45,20.85 38.3,21.35 37.8,22 37.05,22.85 36.2,22.85L35.8,22.85 35.8,23.25 52.45,23.25 52.45,22.85 52.05,22.85Q51.55,22.85 51.1,22.65 50.35,22.25 50.05,21.9 49.3,21.1 48.75,19.75 48.55,19.3 48.4,18.5 48.25,17.6 48.15,17.05 48.05,16.55 48,16.75L47.8,17.55 47.8,17.6Q47.4,19.3 46.8,20.4 46.05,21.8 44.85,22.6 44.7,22.65 44.6,22.7 44.55,22.65 44.5,22.65 43.75,22.45 43.2,21.95 42.2,21.1 42.2,19.6L42.2,6.7Q42.2,5.4 43,4.5 43.35,4.1 44.05,3.85 44.75,3.6 45.45,3.6"/><path fill="#4D5156" d="M53.65,28.25L53.65,27.75 50.05,27.75 50.05,28.25 51.55,28.25 51.55,32.5 52.15,32.5 52.15,28.25 53.65,28.25"/><path fill="#4D5156" d="M42.35,32.5L42.95,32.5 42.95,27.75 42.35,27.75 42.35,31.45 39.6,27.75 39,27.75 39,32.5 39.6,32.5 39.6,28.7 42.35,32.5"/><path fill="#4D5156" d="M62.6,29.8Q61.2,29.4 61.2,28.95 61.2,28.6 61.5,28.4 61.75,28.2 62.2,28.2 63.05,28.2 63.55,28.75L63.95,28.35Q63.3,27.65 62.25,27.65 61.55,27.65 61.1,28.05 60.6,28.4 60.6,29 60.6,29.9 62,30.3 63.4,30.7 63.4,31.25 63.4,31.55 63.2,31.75 62.9,32.05 62.3,32.05 61.4,32.05 60.8,31.35L60.45,31.85Q61.1,32.6 62.3,32.6 63.2,32.6 63.65,32.15 64.05,31.75 64.05,31.15 64.05,30.2 62.6,29.8"/><path fill="#4D5156" d="M24.2,6.35Q24.9,7.35 25.25,8.2L25.6,9 25.65,9.05 31.4,21.75 33.15,18.2 26.15,2.95 18.95,2.95 18.95,3.6Q19.9,3.5 21.1,3.75 22.75,4.35 24.2,6.35"/><path fill="#4D5156" d="M23.6,17.05Q23.5,16.55 23.45,16.75L23.25,17.55 23.25,17.6Q22.85,19.3 22.25,20.4 21.5,21.8 20.3,22.6 19.85,22.85 19.25,22.85L18.85,22.85 18.85,23.25 27.9,23.25 27.9,22.85 27.5,22.85Q27,22.85 26.55,22.65 25.85,22.25 25.55,21.9 24.75,21.15 24.2,19.75 24,19.3 23.9,18.5 23.75,17.6 23.6,17.05"/><path fill="#4D5156" d="M16.55,3.6L16.55,2.95 11.2,2.95Q10.8,2.9 10.45,3.25 9.7,3.85 9.7,5.6L9.7,19.6Q9.7,20.45 9.6,20.85 9.45,21.35 8.9,22 8.2,22.85 7.35,22.85L6.9,22.85 6.9,23.25 16.3,23.25 16.3,22.8 15.65,22.65Q14.85,22.45 14.3,21.95 13.35,21.1 13.35,19.6L13.35,6.7Q13.35,5.4 14.1,4.5 14.45,4.1 15.15,3.85 15.9,3.6 16.55,3.6"/><path fill="#4D5156" d="M7.5,3.5Q7.8,3.5 7.95,3.45L8.5,3.5 8.5,2.95 3.35,2.95 3.35,7.8 3.9,7.8Q3.85,7.05 3.9,6.95 3.9,6.5 4.05,6.15 4.3,5.35 5,4.65 5.6,4.05 6.35,3.7 6.8,3.55 7.5,3.5"/><path fill="#4D5156" d="M10.3,30.3L10.3,29.8 7.8,29.8 7.8,28.25 10.35,28.25 10.35,27.75 7.2,27.75 7.2,32.5 10.35,32.5 10.35,31.95 7.8,31.95 7.8,30.3 10.3,30.3"/><path fill="#4D5156" d="M19.4,31.85L17.8,27.75 17.15,27.75 19,32.5 19.75,32.5 21.65,27.75 21,27.75 19.4,31.85"/><path fill="#4D5156" d="M31.75,32.5L31.75,31.95 29.2,31.95 29.2,30.3 31.7,30.3 31.7,29.8 29.2,29.8 29.2,28.25 31.75,28.25 31.75,27.75 28.65,27.75 28.65,32.5 31.75,32.5"/></g><defs/></svg>