<?xml version="1.0" encoding="utf-8"?><svg xmlns:xlink="http://www.w3.org/1999/xlink" id="Scene_1" image-rendering="auto" baseProfile="basic" version="1.1" x="0px" y="0px" width="70" height="100" viewBox="0 0 70 100" xmlns="http://www.w3.org/2000/svg"><g id="Scene 1_3.0"><g transform="matrix(0.425 0 0 0.425 5.55 74.95)"><path fill="#4D5156" d="M123.25,38.35L123.1,41.3Q122.1,44.25 117.7,44.25L117.7,45.05 138.4,45.05 138.4,44.1Q137.4,44.2 135.85,43.2 132.75,41.1 129.85,35.4L113.75,1 98.25,1 98.25,2.35Q100.2,2.15 102.85,2.65 106.45,3.95 109.5,8.25 111.05,10.4 111.85,12.3L123.25,38.35"/><path fill="#4D5156" d="M84.65,10.3Q84.65,6.85 86.1,4.95 87.5,3.1 90.8,1.9 91,1.85 91.75,1.35L91.6,0.95 80.1,0.9Q77.35,0.9 76.9,1.4 76.4,1.9 76.5,4.65 76.55,5.9 77.05,13.4 77.35,18.75 77.45,22.15 77.7,29.55 77.3,36.9 77.05,43.3 72.1,44.65 72,44.7 71.35,45.2 71.65,45.3 72.3,45.55L107.35,45.55 108.1,45.5 108.3,45.2Q106.2,44 105.4,43.1 104.1,41.65 103.35,39.75 102.85,38.45 102.65,36.05 102.6,35.6 102.6,31.75 101.6,32.6 101.6,32.65L100.1,35.3Q96.8,40.7 92.3,43.95 91.3,44.65 90.15,44.1 86.9,42.65 86.2,38.5 85.4,34.3 85.2,30.35 84.65,18.05 84.65,10.3"/><path fill="#4D5156" d="M50.8,2.1Q50.25,0.85 49.2,0.85L35.5,0.9Q34.95,1.15 34.65,1.25 43.65,3.65 47.35,11.7 48.25,13.6 61.3,42.55L62.05,43.45Q62.9,42.75 62.95,42.6 64.7,38.35 65.7,35.6 66.05,34.7 65.6,33.75L50.8,2.1"/><path fill="#4D5156" d="M45.35,34.8Q45,32.8 44.75,31.65 43.95,32.75 43.95,32.8 42.9,37.3 41.25,39.95 39.1,43.35 35.45,44.95L35.5,45.35 53.65,45.35Q51.95,44.45 51.15,43.95 49.7,43.15 48.95,42.4 47.3,40.6 46.05,37.6 45.65,36.5 45.35,34.8"/><path fill="#4D5156" d="M21.9,8.3Q21.9,5.45 23.65,3.4 24.35,2.55 25.95,2 27.55,1.4 29.1,1.4L29.1,0 17.2,0Q16.4,-0.05 15.6,0.6 13.95,2 13.95,5.8L13.95,38.15Q13.95,39.4 12.55,41.5 10.95,43.9 8.7,43.9L7.75,43.9 7.75,44.85 28.5,44.85 28.5,43.8Q26.95,43.7 25.3,42.8 22.1,41.05 21.9,37.15L21.9,8.3"/><path fill="#4D5156" d="M0,0L0,12.55Q1,9.6 3.05,6.6 7.05,0.5 12.1,0L0,0"/></g></g><g id="Scene 1_2.0"><g transform="matrix(0.425 0 0 0.425 23.8 4.95)"><path fill="#4D5156" d="M50.3,27.5Q50.3,22.65 47.8,18.5 45.3,14.45 41.2,12.25 39.55,6.85 35,3.45 30.4,0 24.65,0 18.7,0 14,3.7 9.4,7.3 7.9,12.95 4.25,15.3 2.15,19.1 0,23 0,27.5 0,34 4.2,38.85 8.4,43.65 14.7,44.6L14.6,45.55 14.6,48.4Q14.6,50.3 15.95,51.65 17.3,53 19.2,53L20.85,53 20.85,62Q20.85,63.9 22.2,65.15L22.2,140.7Q22.2,141.95 23.05,142.8 23.9,143.65 25.15,143.65 26.35,143.65 27.25,142.8 28.1,141.95 28.1,140.7L28.1,65.15Q29.45,63.8 29.45,62L29.45,53 31.1,53Q33,53 34.3,51.65 35.65,50.3 35.65,48.4L35.65,45.55Q35.65,44.9 35.55,44.6 41.85,43.65 46.05,38.85 50.3,34 50.3,27.5 M37.5,23.3Q39.3,25.55 39.3,28.4 39.3,31.75 36.9,34.15 34.55,36.5 31.2,36.5 27.5,36.5 25.15,33.8 22.7,36.5 19.05,36.5 15.7,36.5 13.35,34.15 10.95,31.75 10.95,28.4 10.95,25.55 12.8,23.3 14.6,21.1 17.35,20.5 17,19.3 17,18.25 17,14.9 19.4,12.55 21.8,10.15 25.15,10.15 28.5,10.15 30.85,12.55 33.25,14.9 33.25,18.25 33.25,19.45 32.95,20.5 35.7,21.1 37.5,23.3"/></g></g><g id="Scene 1_1.0"><g transform="matrix(0.425 0 0 0.425 11.7 27.55)"><path fill="#4D5156" d="M35.2,21.25L38.75,17.7Q39.3,17.15 38.75,16.7L35.35,13.25Q31.7,5.45 23.3,3.55L20,0.2Q19.5,-0.3 18.95,0.2L15.65,3.55Q7.25,5.45 3.6,13.3L0.2,16.7Q0,16.9 0,17.2 0,17.45 0.2,17.65L3.75,21.25Q5.6,24.8 10.4,26.95L10.75,29.05Q11.4,31.15 13.05,31.25L13.05,43.95Q13.05,45.35 14.05,46.35 15,47.35 16.4,47.35L16.4,87.65Q16.4,88.9 17.3,89.75 18.2,90.6 19.5,90.6 20.8,90.6 21.65,89.75 22.55,88.9 22.55,87.65L22.55,47.35Q23.95,47.35 24.9,46.35 25.9,45.35 25.9,43.95L25.9,31.25Q27.55,31.15 28.2,29.05L28.55,26.95Q33.4,24.7 35.15,21.25L35.2,21.25 M22.7,22.05Q20.9,22.05 19.5,21.05 18.05,22.05 16.25,22.05 13.95,22.05 12.3,20.4 10.65,18.8 10.65,16.5 10.65,14.2 12.3,12.55 13.95,10.9 16.25,10.9 17.95,10.9 19.5,11.95 20.95,10.9 22.7,10.9 25.05,10.9 26.65,12.55 28.3,14.2 28.3,16.5 28.3,18.8 26.65,20.4 25,22.05 22.7,22.05"/></g></g><g id="Scene 1_0.0"><g transform="matrix(0.425 0 0 0.425 41.2 26.95)"><path fill="#4D5156" d="M32.5,11.15Q34.4,9.1 34.05,6 33.7,3 31.45,1.25 29.75,-0.05 27.55,0 26.05,0.05 23.45,0.9 20.65,1.8 18.1,2.15L15.95,2.15Q13.5,1.8 10.6,0.9 8.05,0.05 6.55,0 4.35,-0.05 2.65,1.25 0.4,3 0.05,6 -0.35,9.1 1.6,11.15 4.3,14.05 10.15,15.45L10.15,19.55Q10.15,20.45 10.8,21.1 11.45,21.7 12.35,21.7L13.95,21.7 13.95,89.1Q13.95,90.35 14.85,91.2 15.75,92.05 17.05,92.05 18.35,92.05 19.25,91.2 20.15,90.35 20.15,89.1L20.15,21.7 21.75,21.7Q22.65,21.7 23.3,21.1 23.95,20.45 23.95,19.55L23.95,15.45Q29.85,14 32.5,11.15 M24.4,9.6Q23.3,8.5 23.3,7 23.3,5.45 24.4,4.4 25.45,3.3 27,3.3 28.55,3.3 29.6,4.4 30.7,5.45 30.7,7 30.7,8.5 29.6,9.6 28.55,10.65 27,10.65 25.45,10.65 24.4,9.6 M11.3,7Q11.3,8.5 10.2,9.6 9.15,10.65 7.6,10.65 6.1,10.65 5.05,9.6 3.95,8.5 3.95,7 3.95,5.45 5.05,4.4 6.1,3.3 7.6,3.3 9.15,3.3 10.2,4.4 11.3,5.45 11.3,7"/></g></g><defs/></svg>