<?xml version="1.0" encoding="utf-8"?><svg xmlns:xlink="http://www.w3.org/1999/xlink" id="Scene_1" image-rendering="auto" baseProfile="basic" version="1.1" x="0px" y="0px" width="100" height="100" viewBox="0 0 100 100" xmlns="http://www.w3.org/2000/svg"><g id="Scene 1_0.0.0"><g transform="matrix(0.2 0 0 0.2 65.9 58.45)"><path fill="#405063" d="M2.4,9.1Q4.15,10.15 6.15,9.6 8.1,9.1 9.1,7.35 10.15,5.6 9.6,3.6 9.1,1.65 7.3,0.65 5.55,-0.35 3.65,0.15 1.65,0.7 0.65,2.45 -0.35,4.2 0.15,6.15 0.7,8.1 2.4,9.1"/></g><g transform="matrix(0.2 0 0 0.2 33.55 43.75)"><path fill="#405063" d="M97.7,17.3L97.7,0 0,0 0,17.3 97.7,17.3"/></g><g transform="matrix(0.2 0 0 0.2 25.95 43.75)"><path fill="#405063" d="M0,0L0,17.3 18.15,17.3 18.15,0 0,0"/></g><g transform="matrix(0.2 0 0 0.2 25.95 53.4)"><path fill="#405063" d="M0,0L0,17.35 18.15,17.35 18.15,0 0,0"/></g><g transform="matrix(0.2 0 0 0.2 25.95 63.05)"><path fill="#405063" d="M0,0L0,17.35 18.15,17.35 18.15,0 0,0"/></g><g transform="matrix(0.2 0 0 0.2 72.15 58.45)"><path fill="#405063" d="M9.1,2.45Q8.1,0.7 6.15,0.15 4.2,-0.35 2.45,0.65 0.65,1.65 0.15,3.6 -0.35,5.6 0.65,7.35 1.65,9.1 3.6,9.6 5.55,10.15 7.3,9.1 9.1,8.1 9.6,6.15 10.15,4.2 9.1,2.45"/></g><g transform="matrix(0.2 0 0 0.2 33.55 43.75)"><path fill="#405063" d="M97.7,17.3L97.7,0 0,0 0,17.3 97.7,17.3"/></g><g transform="matrix(0.2 0 0 0.2 25.95 43.75)"><path fill="#405063" d="M0,0L0,17.3 18.15,17.3 18.15,0 0,0"/></g><g transform="matrix(0.2 0 0 0.2 25.95 53.4)"><path fill="#405063" d="M0,0L0,17.35 18.15,17.35 18.15,0 0,0"/></g><g transform="matrix(0.2 0 0 0.2 25.95 63.05)"><path fill="#405063" d="M0,0L0,17.35 18.15,17.35 18.15,0 0,0"/></g><g transform="matrix(0.2 0 0 0.2 77.6 61.6)"><path fill="#405063" d="M4.85,0.05Q2.85,0.05 1.4,1.45 0,2.9 0,4.9 0,6.95 1.4,8.35 2.85,9.8 4.85,9.8 6.9,9.8 8.3,8.35 9.75,6.95 9.75,4.9 9.75,2.9 8.3,1.45 6.9,0.05 4.85,0.05"/></g><g transform="matrix(0.2 0 0 0.2 33.55 43.75)"><path fill="#405063" d="M97.7,17.3L97.7,0 0,0 0,17.3 97.7,17.3"/></g><g transform="matrix(0.2 0 0 0.2 25.95 43.75)"><path fill="#405063" d="M0,0L0,17.3 18.15,17.3 18.15,0 0,0"/></g><g transform="matrix(0.2 0 0 0.2 25.95 53.4)"><path fill="#405063" d="M0,0L0,17.35 18.15,17.35 18.15,0 0,0"/></g><g transform="matrix(0.2 0 0 0.2 25.95 63.05)"><path fill="#405063" d="M0,0L0,17.35 18.15,17.35 18.15,0 0,0"/></g><g transform="matrix(0.2 0 0 0.2 80.75 67)"><path fill="#405063" d="M2.45,9.15Q4.2,10.15 6.15,9.65 8.1,9.1 9.1,7.35 10.15,5.6 9.6,3.65 9.1,1.7 7.35,0.7 5.6,-0.35 3.65,0.15 1.65,0.7 0.65,2.45 -0.35,4.2 0.15,6.15 0.65,8.1 2.45,9.15"/></g><g transform="matrix(0.2 0 0 0.2 33.55 43.75)"><path fill="#405063" d="M97.7,17.3L97.7,0 0,0 0,17.3 97.7,17.3"/></g><g transform="matrix(0.2 0 0 0.2 25.95 43.75)"><path fill="#405063" d="M0,0L0,17.3 18.15,17.3 18.15,0 0,0"/></g><g transform="matrix(0.2 0 0 0.2 25.95 53.4)"><path fill="#405063" d="M0,0L0,17.35 18.15,17.35 18.15,0 0,0"/></g><g transform="matrix(0.2 0 0 0.2 25.95 63.05)"><path fill="#405063" d="M0,0L0,17.35 18.15,17.35 18.15,0 0,0"/></g><g transform="matrix(0.2 0 0 0.2 80.75 73.3)"><path fill="#405063" d="M0.65,7.35Q1.65,9.1 3.65,9.6 5.6,10.15 7.35,9.15 9.1,8.15 9.6,6.15 10.15,4.2 9.1,2.45 8.1,0.7 6.15,0.15 4.2,-0.35 2.45,0.65 0.7,1.65 0.15,3.6 -0.35,5.6 0.65,7.35"/></g><g transform="matrix(0.2 0 0 0.2 33.55 43.75)"><path fill="#405063" d="M97.7,17.3L97.7,0 0,0 0,17.3 97.7,17.3"/></g><g transform="matrix(0.2 0 0 0.2 25.95 43.75)"><path fill="#405063" d="M0,0L0,17.3 18.15,17.3 18.15,0 0,0"/></g><g transform="matrix(0.2 0 0 0.2 25.95 53.4)"><path fill="#405063" d="M0,0L0,17.35 18.15,17.35 18.15,0 0,0"/></g><g transform="matrix(0.2 0 0 0.2 25.95 63.05)"><path fill="#405063" d="M0,0L0,17.35 18.15,17.35 18.15,0 0,0"/></g><g transform="matrix(0.2 0 0 0.2 77.6 78.7)"><path fill="#405063" d="M4.85,0Q2.85,0 1.4,1.45 0,2.9 0,4.9 0,6.95 1.4,8.35 2.85,9.8 4.85,9.8 6.9,9.8 8.3,8.35 9.75,6.95 9.75,4.9 9.75,2.9 8.3,1.45 6.9,0 4.85,0"/></g><g transform="matrix(0.2 0 0 0.2 33.55 43.75)"><path fill="#405063" d="M97.7,17.3L97.7,0 0,0 0,17.3 97.7,17.3"/></g><g transform="matrix(0.2 0 0 0.2 25.95 43.75)"><path fill="#405063" d="M0,0L0,17.3 18.15,17.3 18.15,0 0,0"/></g><g transform="matrix(0.2 0 0 0.2 25.95 53.4)"><path fill="#405063" d="M0,0L0,17.35 18.15,17.35 18.15,0 0,0"/></g><g transform="matrix(0.2 0 0 0.2 25.95 63.05)"><path fill="#405063" d="M0,0L0,17.35 18.15,17.35 18.15,0 0,0"/></g><g transform="matrix(0.2 0 0 0.2 72.15 81.85)"><path fill="#405063" d="M9.6,3.6Q9.1,1.65 7.3,0.65 5.55,-0.35 3.6,0.15 1.65,0.7 0.65,2.4 -0.35,4.15 0.15,6.1 0.7,8.1 2.4,9.1 4.15,10.15 6.15,9.6 8.1,9.1 9.1,7.3 10.15,5.55 9.6,3.6"/></g><g transform="matrix(0.2 0 0 0.2 33.55 43.75)"><path fill="#405063" d="M97.7,17.3L97.7,0 0,0 0,17.3 97.7,17.3"/></g><g transform="matrix(0.2 0 0 0.2 25.95 43.75)"><path fill="#405063" d="M0,0L0,17.3 18.15,17.3 18.15,0 0,0"/></g><g transform="matrix(0.2 0 0 0.2 25.95 53.4)"><path fill="#405063" d="M0,0L0,17.35 18.15,17.35 18.15,0 0,0"/></g><g transform="matrix(0.2 0 0 0.2 25.95 63.05)"><path fill="#405063" d="M0,0L0,17.35 18.15,17.35 18.15,0 0,0"/></g><g transform="matrix(0.2 0 0 0.2 65.9 81.85)"><path fill="#405063" d="M9.1,2.4Q8.1,0.7 6.15,0.15 4.15,-0.35 2.4,0.65 0.7,1.65 0.15,3.6 -0.35,5.55 0.65,7.3 1.65,9.1 3.65,9.6 5.55,10.15 7.3,9.1 9.1,8.1 9.6,6.1 10.15,4.15 9.1,2.4"/></g><g transform="matrix(0.2 0 0 0.2 33.55 43.75)"><path fill="#405063" d="M97.7,17.3L97.7,0 0,0 0,17.3 97.7,17.3"/></g><g transform="matrix(0.2 0 0 0.2 25.95 43.75)"><path fill="#405063" d="M0,0L0,17.3 18.15,17.3 18.15,0 0,0"/></g><g transform="matrix(0.2 0 0 0.2 25.95 53.4)"><path fill="#405063" d="M0,0L0,17.35 18.15,17.35 18.15,0 0,0"/></g><g transform="matrix(0.2 0 0 0.2 25.95 63.05)"><path fill="#405063" d="M0,0L0,17.35 18.15,17.35 18.15,0 0,0"/></g><g transform="matrix(0.2 0 0 0.2 60.5 78.7)"><path fill="#405063" d="M4.9,0Q2.9,0 1.45,1.45 0,2.9 0,4.9 0,6.95 1.45,8.35 2.9,9.8 4.9,9.8 6.95,9.8 8.35,8.35 9.8,6.95 9.8,4.9 9.8,2.9 8.35,1.45 6.95,0 4.9,0"/></g><g transform="matrix(0.2 0 0 0.2 33.55 43.75)"><path fill="#405063" d="M97.7,17.3L97.7,0 0,0 0,17.3 97.7,17.3"/></g><g transform="matrix(0.2 0 0 0.2 25.95 43.75)"><path fill="#405063" d="M0,0L0,17.3 18.15,17.3 18.15,0 0,0"/></g><g transform="matrix(0.2 0 0 0.2 25.95 53.4)"><path fill="#405063" d="M0,0L0,17.35 18.15,17.35 18.15,0 0,0"/></g><g transform="matrix(0.2 0 0 0.2 25.95 63.05)"><path fill="#405063" d="M0,0L0,17.35 18.15,17.35 18.15,0 0,0"/></g><g transform="matrix(0.2 0 0 0.2 57.35 73.3)"><path fill="#405063" d="M9.65,3.6Q9.15,1.65 7.35,0.65 5.6,-0.35 3.65,0.15 1.7,0.7 0.7,2.45 -0.3,4.2 0.2,6.15 0.7,8.15 2.5,9.15 4.25,10.15 6.2,9.6 8.15,9.1 9.15,7.35 10.2,5.6 9.65,3.6"/></g><g transform="matrix(0.2 0 0 0.2 33.55 43.75)"><path fill="#405063" d="M97.7,17.3L97.7,0 0,0 0,17.3 97.7,17.3"/></g><g transform="matrix(0.2 0 0 0.2 25.95 43.75)"><path fill="#405063" d="M0,0L0,17.3 18.15,17.3 18.15,0 0,0"/></g><g transform="matrix(0.2 0 0 0.2 25.95 53.4)"><path fill="#405063" d="M0,0L0,17.35 18.15,17.35 18.15,0 0,0"/></g><g transform="matrix(0.2 0 0 0.2 25.95 63.05)"><path fill="#405063" d="M0,0L0,17.35 18.15,17.35 18.15,0 0,0"/></g><g transform="matrix(0.2 0 0 0.2 57.35 67)"><path fill="#405063" d="M9.15,2.45Q8.15,0.7 6.2,0.15 4.25,-0.35 2.5,0.7 0.75,1.7 0.2,3.65 -0.3,5.6 0.7,7.35 1.7,9.1 3.65,9.65 5.6,10.15 7.35,9.15 9.15,8.1 9.65,6.15 10.2,4.2 9.15,2.45"/></g><g transform="matrix(0.2 0 0 0.2 33.55 43.75)"><path fill="#405063" d="M97.7,17.3L97.7,0 0,0 0,17.3 97.7,17.3"/></g><g transform="matrix(0.2 0 0 0.2 25.95 43.75)"><path fill="#405063" d="M0,0L0,17.3 18.15,17.3 18.15,0 0,0"/></g><g transform="matrix(0.2 0 0 0.2 25.95 53.4)"><path fill="#405063" d="M0,0L0,17.35 18.15,17.35 18.15,0 0,0"/></g><g transform="matrix(0.2 0 0 0.2 25.95 63.05)"><path fill="#405063" d="M0,0L0,17.35 18.15,17.35 18.15,0 0,0"/></g><g transform="matrix(0.2 0 0 0.2 60.5 61.6)"><path fill="#405063" d="M60.9,47.75Q60.9,42.25 57.05,38.4 56.2,37.55 55.2,36.85L55.2,36.8 8.35,1.45Q6.95,0.05 4.9,0.05 2.9,0.05 1.45,1.45 0.05,2.9 0.05,4.9 0.05,6.95 1.45,8.35L36.8,55.25 36.85,55.2Q37.55,56.2 38.4,57.05 42.25,60.9 47.7,60.9 53.2,60.9 57.05,57.05 60.9,53.2 60.9,47.75"/></g><g transform="matrix(0.2 0 0 0.2 33.55 43.75)"><path fill="#405063" d="M97.7,17.3L97.7,0 0,0 0,17.3 97.7,17.3"/></g><g transform="matrix(0.2 0 0 0.2 25.95 43.75)"><path fill="#405063" d="M0,0L0,17.3 18.15,17.3 18.15,0 0,0"/></g><g transform="matrix(0.2 0 0 0.2 25.95 53.4)"><path fill="#405063" d="M0,0L0,17.35 18.15,17.35 18.15,0 0,0"/></g><g transform="matrix(0.2 0 0 0.2 25.95 63.05)"><path fill="#405063" d="M0,0L0,17.35 18.15,17.35 18.15,0 0,0"/></g><g transform="matrix(0.2 0 0 0.2 36.2 13.4)"><path fill="#405063" d="M5.2,30.35Q10.4,35.55 17.7,35.55 25.1,35.55 30.3,30.35 35.5,25.15 35.5,17.8 35.5,10.45 30.3,5.25 25.1,0 17.7,0 10.4,0 5.2,5.2 0,10.4 0,17.8 0,25.15 5.2,30.35"/></g><g transform="matrix(0.2 0 0 0.2 33.55 43.75)"><path fill="#405063" d="M97.7,17.3L97.7,0 0,0 0,17.3 97.7,17.3"/></g><g transform="matrix(0.2 0 0 0.2 25.95 43.75)"><path fill="#405063" d="M0,0L0,17.3 18.15,17.3 18.15,0 0,0"/></g><g transform="matrix(0.2 0 0 0.2 25.95 53.4)"><path fill="#405063" d="M0,0L0,17.35 18.15,17.35 18.15,0 0,0"/></g><g transform="matrix(0.2 0 0 0.2 25.95 63.05)"><path fill="#405063" d="M0,0L0,17.35 18.15,17.35 18.15,0 0,0"/></g><g transform="matrix(0.2 0 0 0.2 10 9)"><path fill="#405063" d="M338.15,184.15Q338.15,168.4 327,157.25 315.9,146.1 300.1,146.1L299.35,146.15 299.35,70.9Q299.35,50.45 284.9,35.95 270.45,21.5 250,21.5L197.2,21.5Q193.1,13.4 186,7.85 178.8,2.15 169.85,0.2 169.6,0.1 169.6,0.05L168.85,0Q167.65,0 166.8,0.85 165.95,1.7 165.95,2.85 165.95,3.75 166.5,4.5 167,5.25 167.85,5.55 177.5,10.8 183.25,20.15 189.15,29.8 189.15,41.15L222.7,41.15Q239.45,41.15 251.3,53 263.15,64.85 263.15,81.6L263.15,94.35Q263.15,99.4 259.55,103.05 255.95,106.65 250.9,106.65L46.5,106.65Q41.4,106.65 37.85,103.05 34.25,99.45 34.25,94.35L34.25,81.6Q34.25,64.85 46.1,53 57.95,41.15 74.7,41.15L108.25,41.15Q108.25,30.7 113.35,21.5L49.35,21.5Q28.9,21.5 14.45,35.95 0,50.45 0,70.9L0,324.3Q0,344.75 14.45,359.2 28.9,373.65 49.35,373.65L222.5,373.65Q236.5,390.9 256.4,400.6 277,410.65 300.1,410.65 320.45,410.65 339,402.8 356.95,395.2 370.75,381.4 384.55,367.55 392.15,349.65 400,331.05 400,310.75 400,292.7 393.8,275.95 387.8,259.75 376.65,246.5L381.6,241.55 383.3,243.25Q384.4,244.35 385.9,244.35 387.4,244.35 388.45,243.25L394.95,236.85Q396,235.75 396,234.25 396,232.7 394.95,231.65L379.5,216.25Q378.45,215.15 376.9,215.15 375.4,215.15 374.3,216.25L367.9,222.7Q366.8,223.8 366.8,225.3 366.8,226.75 367.9,227.85L369.55,229.55 364.65,234.4Q346.75,219.3 324.1,213.7 330.65,208.4 334.35,200.8 338.15,192.95 338.15,184.15 M369.5,281.65Q375.4,295.65 375.4,310.95 375.4,326.3 369.5,340.25 363.75,353.8 353.35,364.2 342.9,374.6 329.4,380.35 315.4,386.25 300.1,386.25 284.8,386.25 270.8,380.35 257.25,374.6 246.85,364.2 236.45,353.8 230.7,340.25 224.8,326.3 224.8,310.95 224.8,295.65 230.7,281.65 236.45,268.1 246.85,257.7 257.25,247.3 270.8,241.55 284.8,235.65 300.1,235.65 315.4,235.65 329.4,241.55 342.9,247.3 353.35,257.7 363.75,268.1 369.5,281.65 M248.4,146.95L248.4,225.4Q240.9,229.9 235.55,234.45L230.65,229.55 232.35,227.85Q233.4,226.8 233.4,225.3 233.4,223.8 232.35,222.7L225.85,216.25Q224.8,215.15 223.3,215.15 221.8,215.15 220.7,216.25L215,221.95 117.85,221.95 117.85,239.3 207.75,239.3 211.7,243.25Q212.8,244.35 214.3,244.35 215.85,244.35 216.9,243.25L218.65,241.55 223.55,246.5Q214.8,256.85 208.8,270.2L117.85,270.2 117.85,287.55 203,287.55Q200.2,299.15 200.2,310.7 200.2,320.75 202.2,330.6L65.6,330.6Q60.55,330.6 56.95,327.05 53.35,323.45 53.35,318.35L53.35,146.95Q53.35,141.9 56.95,138.3 60.55,134.7 65.6,134.7L236.1,134.7Q241.2,134.7 244.8,138.3 248.4,141.85 248.4,146.95 M282,166.05Q289.5,158.55 300.1,158.55 310.7,158.55 318.2,166.05 325.7,173.6 325.7,184.2 325.7,192.4 320.95,199.05 316.3,205.55 308.8,208.25L308.8,191.9 311.25,191.9Q312.75,191.9 313.85,190.85 314.9,189.75 314.9,188.25L314.9,179.1Q314.9,177.6 313.85,176.55 312.75,175.45 311.25,175.45L289.4,175.45Q287.9,175.45 286.85,176.55 285.8,177.6 285.8,179.1L285.8,188.25Q285.8,189.75 286.85,190.85 287.9,191.9 289.4,191.9L291.8,191.9 291.8,208.4Q284.15,205.8 279.4,199.2 274.5,192.5 274.5,184.2 274.5,173.6 282,166.05"/></g><g transform="matrix(0.2 0 0 0.2 33.55 43.75)"><path fill="#405063" d="M97.7,17.3L97.7,0 0,0 0,17.3 97.7,17.3"/></g><g transform="matrix(0.2 0 0 0.2 25.95 43.75)"><path fill="#405063" d="M0,0L0,17.3 18.15,17.3 18.15,0 0,0"/></g><g transform="matrix(0.2 0 0 0.2 25.95 53.4)"><path fill="#405063" d="M0,0L0,17.35 18.15,17.35 18.15,0 0,0"/></g><g transform="matrix(0.2 0 0 0.2 25.95 63.05)"><path fill="#405063" d="M0,0L0,17.35 18.15,17.35 18.15,0 0,0"/></g></g><defs/></svg>