<?xml version="1.0" encoding="utf-8"?><svg xmlns:xlink="http://www.w3.org/1999/xlink" id="Scene_1" image-rendering="auto" baseProfile="basic" version="1.1" x="0px" y="0px" width="100" height="100" viewBox="0 0 100 100" xmlns="http://www.w3.org/2000/svg"><g id="Scene 1_3.0"><g transform="matrix(0.2 0 0 0.2 23.9 39.2)"><path fill="#405063" d="M178.4,59.25Q175.9,60.55 170.7,61.85 163.35,61.85 158.05,56.7 152.65,51.4 152.65,43.8 152.65,39.9 155.25,34.8L123.65,1.9Q119.85,3.85 115.3,3.85 108.55,3.85 103.7,0L46.35,38.65Q47,39.95 47,43.8 47,51.15 41.85,56.45 36.6,61.85 29,61.85 22.2,61.85 17.4,57.95L0,69.55Q13.8,98.05 40.35,115.15 67.7,132.7 100.5,132.7 127.35,132.7 153.3,119.15 180.75,103.9 195.8,78.6L195.8,77.95 178.4,59.25"/></g></g><g id="Scene 1_2.0"><g transform="matrix(0.2 0 0 0.2 21.85 21.15)"><path fill="#405063" d="M212.9,68.3Q204.5,48.4 189.15,33 173.8,17.65 153.95,9.1 133.35,0.25 110.8,0 88.25,0 67.65,8.7 47.8,17.1 32.45,32.45 17.1,47.8 8.7,67.65 0,88.25 0,110.8 0,131.7 6.45,148.15L21.9,137.85Q21.25,136.55 21.25,132.7 21.25,125.35 26.4,120.05 31.65,114.65 39.3,114.65 46.05,114.65 50.9,118.55L108.2,79.9Q107.55,78.6 107.55,74.75 107.55,67.35 112.7,62.1 118,56.7 125.6,56.7 132.95,56.7 138.25,61.85 143.65,67.1 143.65,74.75 143.65,78.55 141.05,83.75L172.6,116.6Q176.5,114.65 181,114.65 188.35,114.65 193.65,119.8 199.05,125.1 199.05,132.7 199.05,136.6 196.45,141.7L211.25,157.85Q221.6,137.15 221.6,111.45 221.6,88.9 212.9,68.3"/></g></g><g id="Scene 1_1.0"><g transform="matrix(0.2 0 0 0.2 10 9.55)"><path fill="#405063" d="M340.15,169.4Q340.15,135 326.8,103.55 313.95,73.15 290.5,49.7 267,26.2 236.6,13.35 205.15,0 170.75,0 136.3,0 104.65,13.35 74.05,26.2 50.35,49.7 26.6,73.15 13.55,103.55 0,135.05 0,169.4 0,203.8 13.35,235.25 26.25,265.65 49.7,289.15 73.15,312.6 103.55,325.45 135.05,338.8 169.45,338.8 193.05,338.8 215.9,332.2 238.6,325.65 259,313.05L262.85,310.45 329.85,391Q330.25,391.8 330.8,392.2 331.1,392.45 331.75,392.9L332.4,393.55Q344.9,405.05 361.8,404.45 378.55,403.8 389.75,391.65 400.9,379.05 399.95,362.25 399.05,345.4 386.5,334.3L308.6,267.3 311.15,263.45Q325.25,242.6 332.65,218.6 340.15,194.4 340.15,169.4 M221.6,45.9Q245.65,56.1 264.2,74.6 282.7,93.15 292.9,117.2 303.4,142.1 303.4,169.4 303.9,187.75 299.15,205.3 294.4,222.85 284.75,238.3 275.65,253.6 262.35,266.2 249.35,278.5 233.2,287.3 218.55,295.1 202.55,299.2 186.15,303.4 169.45,303.4 142.15,303.4 117.25,292.9 93.2,282.7 74.65,264.2 56.15,245.65 45.95,221.6 35.45,196.7 35.45,169.4 35.45,142.1 45.95,117.2 56.15,93.15 74.65,74.6 93.2,56.1 117.25,45.9 142.15,35.4 169.45,35.4 196.75,35.4 221.6,45.9"/></g></g><defs/></svg>