<?xml version="1.0" encoding="utf-8"?><svg xmlns:xlink="http://www.w3.org/1999/xlink" id="Scene_1" image-rendering="auto" baseProfile="basic" version="1.1" x="0px" y="0px" width="100" height="100" viewBox="0 0 100 100" xmlns="http://www.w3.org/2000/svg"><g id="Scene 1_0.0"><g transform="matrix(0.2 0 0 0.2 18.4 10.05)"><path fill="#405063" d="M307.1,93.15Q303.2,80.7 295.1,67.85 271.1,28.3 224,10.7 203.55,3.1 181.3,0.85 160.25,-1.25 140.8,1.8 106.3,7.25 81.05,23.9 55.55,40.75 41.25,67.85 34,82.9 31.7,93.15L30.3,98.3Q30.3,98.6 30.15,99.15 30,99.65 30,100L28.95,105.8Q26.5,120.65 28.6,139.35L28.6,142.75Q28.6,147.5 26.55,151.65L1.9,204Q-0.35,208.8 0.05,214.25 0.45,219.55 3.3,224.5 6.05,229.3 10.95,231.9 15.65,234.45 21.4,234.45L32.05,234.45 26.9,258.4Q24.9,266.9 28.25,275.85L29.3,278.25Q33.8,290.85 31.7,304.6 30.9,309.2 31.9,313.65 32.9,318.1 35.45,321.7 38.05,325.3 41.9,327.65 45.85,330.1 50.15,330.6L86.1,336.05 86.1,393.2Q86.1,397.15 89.15,398.65 89.95,399.2 91.05,399.6 92.15,400 92.9,400 94.65,400 95.3,399.7L255.75,341.85Q258.2,340.95 259.85,338.1 260.95,335.4 259.85,332.65 243.75,293.15 255.4,266.25 258.35,259.7 262.9,253.85 265.8,250.1 270.15,245.75L271.5,244.35Q301.25,214.9 311.05,179.95 320.8,145.15 310.5,105.8L309.15,100Q308.8,98.95 308.8,98.65 308.65,98.3 308.1,96.4 307.6,94.55 307.4,94.2 307.4,93.5 307.1,93.15 M195.7,47Q207.6,55.2 213,68.85 218.05,67.5 224.65,67.5 244.15,67.5 258.2,81.8 272.2,96.1 272.2,116.05 272.2,136.1 258.3,150.35 244.35,164.65 224.65,164.65L176.75,164.65 164.1,182.1 200.7,182.1Q202.75,182.1 203.7,183.95 204.7,185.85 203.4,187.6L162.35,244.35Q160.6,246.95 157.95,245.35 155.25,243.75 156.55,240.95L174,199.2 130.55,199.2Q128.45,199.2 127.5,197.4 126.55,195.55 127.8,193.75L149.05,164.65 113.8,164.65Q94.3,164.65 80.3,150.35 66.25,136.05 66.25,116.05 66.25,96 80.15,81.8 94.1,67.5 113.8,67.5 120.35,67.5 125.4,68.85 130.85,55.2 142.7,47 154.65,38.75 169.2,38.75 183.75,38.75 195.7,47"/></g></g><defs/></svg>