<?xml version="1.0" encoding="utf-8"?><svg xmlns:xlink="http://www.w3.org/1999/xlink" id="Scene_1" image-rendering="auto" baseProfile="basic" version="1.1" x="0px" y="0px" width="100" height="100" viewBox="0 0 100 100" xmlns="http://www.w3.org/2000/svg"><g id="Scene 1_0.0"><path fill="#405063" d="M81.15,70.6Q81.75,70.6 82.35,68.55 82.75,67.1 82.5,66.5 82.3,66.1 81.75,66.1 81.9,65.7 82,65.2 82.55,61.75 81.4,60.25 81.05,59.75 80.6,59.55L80.15,59.45Q79.55,58.45 78.55,57.9 76.95,57 75.15,57.2 74.45,57.2 73.8,57.45 73,57.7 72.3,58.2 71.5,58.75 70.75,59.5 69.55,60.7 69.15,62.4 68.8,63.8 69.15,65.25 69.2,65.7 69.35,66.1 68.85,66.05 68.65,66.5 68.35,67.1 68.8,68.55 69.3,70.55 69.9,70.6 70.15,71.85 70.75,72.85L70.75,75.65Q70.75,75.85 70.6,75.9 66.1,78.15 62.1,81.35 61.65,81.75 61.35,82.35 61.1,82.9 61.1,83.55L61.1,87.6 90,87.6 90,83.55Q90,82.9 89.75,82.35 89.45,81.75 88.95,81.35 85,78.15 80.5,75.9 80.35,75.85 80.35,75.65L80.35,72.8Q80.95,71.8 81.15,70.6"/><path fill="#405063" d="M43,21.3Q42.8,21.9 43.2,23.3 43.75,25.3 44.35,25.35 44.55,26.55 45.15,27.6L45.15,30.2Q47.2,32.3 49.45,34.05 49.55,34.05 49.5,34.15 49.45,34.2 49.4,34.2 48.6,34.1 47.85,35.25 47.4,35.95 47.1,36.9 47.05,37 46.95,36.95L46.95,36.9Q45.35,34.15 44.05,31.1 40.1,33.15 36.5,36 36,36.45 35.75,37 35.45,37.6 35.5,38.25L35.5,42.3 64.5,42.3 64.5,38.3Q64.5,37.65 64.25,37.05 63.95,36.45 63.5,36.05 59.95,33.2 55.95,31.1 54.7,34.05 53.05,36.95 53,37 52.95,37L52.9,36.95Q52.6,36 52.15,35.3 51.4,34.1 50.6,34.2 50.55,34.25 50.5,34.2 50.45,34.1 50.55,34.05 52.75,32.35 54.8,30.25L54.8,27.6Q55.45,26.55 55.65,25.35 56.25,25.35 56.8,23.3 57.5,20.85 56.3,20.85 57.1,17.05 55.75,15.5 55.3,15 54.7,14.8L54.2,14.7Q53.75,13.55 52.7,12.9 51.6,12.25 50.35,12.45 47.8,12.7 45.15,12.4 45.15,13.2 45.75,13.65 43.8,14.85 43.45,17.5 43.25,19.1 43.65,20.85 43.15,20.85 43,21.3"/><path fill="#405063" d="M30.35,60.25Q30,59.75 29.5,59.55L29.1,59.45Q28.5,58.45 27.45,57.9 25.85,57 24.05,57.2 23.4,57.2 22.7,57.45 21.9,57.7 21.2,58.2 20.4,58.75 19.7,59.5 18.45,60.7 18.05,62.4 17.7,63.8 18.05,65.25 18.1,65.7 18.25,66.15 17.75,66.1 17.55,66.55 17.25,67.15 17.65,68.6 18.25,70.6 18.85,70.65 19.05,71.85 19.65,72.9L19.65,75.7Q19.65,75.85 19.5,75.9 15,78.2 11.05,81.35 10.55,81.75 10.25,82.35 10,82.95 10,83.55L10,87.65 38.95,87.65 38.95,83.55Q38.95,82.95 38.65,82.35 38.4,81.75 37.9,81.35 33.9,78.15 29.4,75.9 29.25,75.85 29.25,75.65L29.25,72.8Q29.9,71.75 30.1,70.6 30.7,70.6 31.25,68.55 31.65,67.1 31.4,66.5 31.2,66.1 30.65,66.1 30.8,65.7 30.9,65.2 31.5,61.75 30.35,60.25"/><path fill="#405063" d="M36.9,68.9L38.85,72.2 49.9,65.8 61.15,72.25 63.1,68.9 51.95,62.5 51.95,49.55 48.1,49.55 48.1,62.35 36.9,68.9"/></g><defs/></svg>