<?xml version="1.0" encoding="utf-8"?><svg xmlns:xlink="http://www.w3.org/1999/xlink" id="Scene_1" image-rendering="auto" baseProfile="basic" version="1.1" x="0px" y="0px" width="32" height="32" viewBox="0 0 32 32" xmlns="http://www.w3.org/2000/svg"><g id="Scene 1_0.0"><path fill="#4F5762" d="M15.6,2.35Q15.75,2.5 16,2.5 16.2,2.5 16.35,2.35 16.5,2.2 16.5,2 16.5,1.8 16.35,1.65 16.2,1.5 16,1.5 15.75,1.5 15.6,1.65 15.5,1.8 15.5,2 15.5,2.2 15.6,2.35"/><path fill="#4F5762" d="M19.15,2.7Q19.25,2.9 19.5,2.95 19.7,3 19.9,2.9 20.05,2.8 20.1,2.65 20.2,2.45 20.05,2.25 19.95,2.05 19.75,2 19.5,1.95 19.3,2.05 19.2,2.15 19.1,2.35 19.05,2.5 19.15,2.7"/><path fill="#4F5762" d="M22.5,4Q22.55,4.2 22.75,4.3 22.9,4.4 23.15,4.4 23.35,4.3 23.45,4.15 23.55,3.95 23.5,3.75 23.4,3.55 23.25,3.45 23.05,3.35 22.85,3.35 22.65,3.45 22.55,3.65 22.45,3.8 22.5,4"/><path fill="#4F5762" d="M26.25,5.75Q26.05,5.55 25.85,5.55 25.7,5.6 25.55,5.75 25.4,5.9 25.35,6.05 25.35,6.25 25.55,6.45 25.7,6.6 25.9,6.6 26.1,6.6 26.25,6.45 26.4,6.3 26.4,6.1 26.4,5.9 26.25,5.75"/><path fill="#4F5762" d="M28.65,9.15Q28.65,8.9 28.55,8.75 28.45,8.55 28.25,8.5 28.05,8.45 27.85,8.55 27.7,8.65 27.6,8.85 27.6,9.05 27.7,9.25 27.8,9.4 28,9.5 28.2,9.55 28.35,9.45 28.55,9.35 28.65,9.15"/><path fill="#4F5762" d="M30,12.25Q29.95,12 29.75,11.9 29.55,11.8 29.35,11.9 29.2,11.95 29.1,12.05 29,12.25 29.05,12.5 29.1,12.7 29.3,12.8 29.5,12.95 29.65,12.9 29.85,12.8 29.95,12.65 30.05,12.45 30,12.25"/><path fill="#4F5762" d="M29.65,15.6Q29.5,15.75 29.5,16 29.5,16.2 29.65,16.35 29.8,16.5 30,16.5 30.2,16.5 30.35,16.35 30.5,16.2 30.5,16 30.5,15.75 30.35,15.6 30.2,15.5 30,15.5 29.8,15.5 29.65,15.6"/><path fill="#4F5762" d="M29.3,19.15Q29.1,19.25 29.05,19.5 29,19.7 29.1,19.9 29.2,20.05 29.35,20.1 29.55,20.2 29.75,20.05 29.95,19.95 30,19.75 30.05,19.5 29.95,19.3 29.85,19.2 29.65,19.1 29.5,19.05 29.3,19.15"/><path fill="#4F5762" d="M27.7,22.75Q27.6,22.9 27.65,23.15 27.7,23.35 27.85,23.45 28.05,23.55 28.3,23.5 28.45,23.4 28.55,23.25 28.7,23.05 28.65,22.85 28.55,22.65 28.35,22.55 28.2,22.45 28,22.5 27.85,22.55 27.7,22.75"/><path fill="#4F5762" d="M25.95,25.35Q25.75,25.35 25.55,25.55 25.4,25.7 25.4,25.9 25.4,26.1 25.55,26.25 25.7,26.4 25.9,26.4 26.1,26.4 26.25,26.25 26.45,26.05 26.45,25.85 26.4,25.7 26.25,25.55 26.1,25.4 25.95,25.35"/><path fill="#4F5762" d="M23.2,27.6Q22.95,27.6 22.75,27.7 22.6,27.8 22.55,28 22.45,28.2 22.55,28.35 22.65,28.55 22.9,28.65 23.1,28.65 23.25,28.55 23.45,28.45 23.55,28.25 23.55,28.05 23.45,27.85 23.35,27.7 23.2,27.6"/><path fill="#4F5762" d="M19.95,29.1Q19.75,29 19.5,29.05 19.3,29.1 19.2,29.3 19.05,29.5 19.1,29.65 19.2,29.85 19.35,29.95 19.55,30.05 19.75,30 20,29.95 20.1,29.75 20.2,29.55 20.1,29.35 20.05,29.2 19.95,29.1"/><path fill="#4F5762" d="M16.4,29.65Q16.25,29.5 16,29.5 15.8,29.5 15.65,29.65 15.5,29.8 15.5,30 15.5,30.2 15.65,30.35 15.8,30.5 16,30.5 16.25,30.5 16.4,30.35 16.5,30.2 16.5,30 16.5,29.8 16.4,29.65"/><path fill="#4F5762" d="M12.85,29.3Q12.75,29.1 12.5,29.05 12.3,29 12.1,29.1 11.95,29.2 11.9,29.35 11.8,29.55 11.95,29.75 12.05,29.95 12.25,30 12.5,30.05 12.7,29.95 12.8,29.85 12.9,29.65 12.95,29.5 12.85,29.3"/><path fill="#4F5762" d="M9.5,28Q9.45,27.85 9.25,27.7 9.1,27.6 8.85,27.65 8.65,27.7 8.55,27.85 8.45,28.05 8.5,28.3 8.6,28.45 8.75,28.55 8.95,28.7 9.15,28.65 9.35,28.55 9.45,28.35 9.55,28.2 9.5,28"/><path fill="#4F5762" d="M6.65,25.95Q6.65,25.75 6.45,25.55 6.3,25.4 6.1,25.4 5.9,25.4 5.75,25.55 5.6,25.7 5.6,25.9 5.6,26.1 5.75,26.25 5.95,26.45 6.15,26.45 6.3,26.4 6.45,26.25 6.6,26.1 6.65,25.95"/><path fill="#4F5762" d="M4.4,23.2Q4.45,22.95 4.3,22.75 4.2,22.6 4.05,22.55 3.8,22.45 3.65,22.55 3.45,22.65 3.4,22.9 3.35,23.1 3.45,23.25 3.6,23.45 3.75,23.55 3.95,23.55 4.15,23.45 4.3,23.35 4.4,23.2"/><path fill="#4F5762" d="M2.9,19.95Q3,19.75 2.95,19.5 2.9,19.3 2.7,19.2 2.5,19.05 2.35,19.1 2.15,19.2 2.05,19.35 1.95,19.55 2,19.75 2.05,20 2.25,20.1 2.45,20.2 2.65,20.1 2.8,20.05 2.9,19.95"/><path fill="#4F5762" d="M2.35,16.4Q2.5,16.25 2.5,16 2.5,15.8 2.35,15.65 2.2,15.5 2,15.5 1.8,15.5 1.65,15.65 1.5,15.8 1.5,16 1.5,16.25 1.65,16.4 1.8,16.5 2,16.5 2.2,16.5 2.35,16.4"/><path fill="#4F5762" d="M12.9,2.35Q12.8,2.15 12.65,2.05 12.45,1.95 12.25,2 12,2.05 11.9,2.25 11.8,2.45 11.9,2.65 11.95,2.8 12.05,2.9 12.25,3 12.5,2.95 12.7,2.9 12.8,2.7 12.95,2.5 12.9,2.35"/><path fill="#4F5762" d="M5.75,5.75Q5.55,5.95 5.55,6.15 5.6,6.3 5.75,6.45 5.9,6.6 6.05,6.65 6.25,6.65 6.45,6.45 6.6,6.3 6.6,6.1 6.6,5.9 6.45,5.75 6.3,5.6 6.1,5.6 5.9,5.6 5.75,5.75"/><path fill="#4F5762" d="M8.45,3.75Q8.45,3.95 8.55,4.15 8.65,4.3 8.8,4.4 9.05,4.45 9.25,4.3 9.4,4.2 9.45,4.05 9.55,3.8 9.45,3.65 9.35,3.45 9.1,3.4 8.9,3.35 8.75,3.45 8.55,3.6 8.45,3.75"/><path fill="#4F5762" d="M3.45,8.75Q3.3,8.95 3.35,9.15 3.45,9.35 3.65,9.45 3.8,9.55 4,9.5 4.15,9.45 4.3,9.25 4.4,9.1 4.4,8.85 4.3,8.65 4.15,8.55 3.95,8.45 3.75,8.5 3.55,8.6 3.45,8.75"/><path fill="#4F5762" d="M2.25,11.95Q2.05,12.05 2,12.25 1.95,12.5 2.05,12.7 2.15,12.8 2.35,12.9 2.5,12.95 2.7,12.85 2.9,12.75 2.95,12.5 3,12.3 2.9,12.1 2.8,11.95 2.65,11.9 2.45,11.8 2.25,11.95"/></g><defs/></svg>