<?xml version="1.0" encoding="utf-8"?><svg xmlns:xlink="http://www.w3.org/1999/xlink" id="Scene_1" image-rendering="auto" baseProfile="basic" version="1.1" x="0px" y="0px" width="25" height="25" viewBox="0 0 25 25" xmlns="http://www.w3.org/2000/svg"><g><use xlink:href="#temp" width="102" height="102" x="-51" y="-51" overflow="visible" transform="matrix(1 0 0 1 12.5 2.3)"/><use xlink:href="#temp" width="102" height="102" x="-51" y="-51" overflow="visible" transform="matrix(1 0 0 1 18.6 4.25)"/><use xlink:href="#temp" width="102" height="102" x="-51" y="-51" overflow="visible" transform="matrix(1 0 0 1 22.4 9.4)"/><use xlink:href="#temp" width="102" height="102" x="-51" y="-51" overflow="visible" transform="matrix(1 0 0 1 22.35 15.85)"/><use xlink:href="#temp" width="102" height="102" x="-51" y="-51" overflow="visible" transform="matrix(1 0 0 1 18.55 20.95)"/><use xlink:href="#temp" width="102" height="102" x="-51" y="-51" overflow="visible" transform="matrix(1 0 0 1 12.5 22.9)"/><use xlink:href="#temp" width="102" height="102" x="-51" y="-51" overflow="visible" transform="matrix(1 0 0 1 6.45 20.95)"/><use xlink:href="#temp" width="102" height="102" x="-51" y="-51" overflow="visible" transform="matrix(1 0 0 1 2.7 15.8)"/><use xlink:href="#temp" width="102" height="102" x="-51" y="-51" overflow="visible" transform="matrix(1 0 0 1 2.65 9.45)"/><use xlink:href="#temp" width="102" height="102" x="-51" y="-51" overflow="visible" transform="matrix(1 0 0 1 6.4 4.3)"/><use xlink:href="#temp" width="102" height="102" x="-51" y="-51" overflow="visible" transform="matrix(1 0 0 1 15.75 2.85)"/><use xlink:href="#temp" width="102" height="102" x="-51" y="-51" overflow="visible" transform="matrix(1 0 0 1 20.9 6.55)"/><use xlink:href="#temp" width="102" height="102" x="-51" y="-51" overflow="visible" transform="matrix(1 0 0 1 22.85 12.6)"/><use xlink:href="#temp" width="102" height="102" x="-51" y="-51" overflow="visible" transform="matrix(1 0 0 1 20.85 18.75)"/><use xlink:href="#temp" width="102" height="102" x="-51" y="-51" overflow="visible" transform="matrix(1 0 0 1 15.7 22.45)"/><use xlink:href="#temp" width="102" height="102" x="-51" y="-51" overflow="visible" transform="matrix(1 0 0 1 9.4 22.45)"/><use xlink:href="#temp" width="102" height="102" x="-51" y="-51" overflow="visible" transform="matrix(1 0 0 1 4.2 18.7)"/><use xlink:href="#temp" width="102" height="102" x="-51" y="-51" overflow="visible" transform="matrix(1 0 0 1 2.2 12.6)"/><use xlink:href="#temp" width="102" height="102" x="-51" y="-51" overflow="visible" transform="matrix(1 0 0 1 4.1 6.55)"/><use xlink:href="#temp" width="102" height="102" x="-51" y="-51" overflow="visible" transform="matrix(1 0 0 1 9.3 2.85)"/></g><defs><symbol id="temp" viewBox="-50.9 -50.9 101.85 101.75"><path fill="#4F5762" d="M0.95,-0.05Q0.95,-0.4 0.7,-0.65 0.35,-0.9 -0.05,-0.9 -0.4,-0.9 -0.65,-0.65 -0.9,-0.4 -0.9,-0.05 -0.9,0.35 -0.65,0.6 -0.4,0.85 -0.05,0.85 0.35,0.85 0.7,0.6 0.95,0.35 0.95,-0.05"/>
</symbol></defs></svg>