<?xml version="1.0" encoding="utf-8"?><svg xmlns:xlink="http://www.w3.org/1999/xlink" id="Scene_1" image-rendering="auto" baseProfile="basic" version="1.1" x="0px" y="0px" width="40" height="40" viewBox="0 0 40 40" xmlns="http://www.w3.org/2000/svg"><g id="Scene 1_2.0"><path fill="#A3A3A3" d="M27.325,12.625L27.35,12.625Q26.52,11.696 25.25,11.7L14.75,11.7Q13.496,11.697 12.625,12.625 11.751,13.497 11.75,14.75L11.75,25.1Q11.758,26.401 12.575,27.325 13.499,28.197 14.75,28.2L25.2,28.25Q26.45,28.193 27.375,27.325 28.247,26.4 28.25,25.15L28.2,14.8Q28.255,13.548 27.325,12.625"/><path fill="#FFF" d="M27.7,14.8Q27.745,13.752 26.975,12.975 26.293,12.204 25.25,12.2L14.75,12.2Q13.704,12.202 12.975,12.975 12.248,13.703 12.25,14.75L12.25,25.1Q12.254,26.199 12.95,26.975L12.925,26.975Q13.7,27.703 14.75,27.7L25.2,27.75Q26.25,27.707 27.025,26.975 27.753,26.199 27.75,25.15L27.7,14.8"/></g><g id="Scene 1_0.0"><path fill="#A0CFD6" d="M35.95,6.25L35.6,5.85Q31.7,6.6 26,12.85 23.15,16 21.1,19 20.7,18.25 20.05,17.45 18.85,15.85 17.95,15.6 16.55,15.25 15.35,16.35 14.9,16.75 14.75,17.1 14.55,17.5 14.8,17.55 16.35,16.9 18.25,21.3 18.7,22.45 19.55,24.5 20.25,25.95 20.7,26 21.2,26 23,22.7 25.45,18.1 27.4,15.55 29.65,12.55 33.05,9.1 34.7,7.4 35.95,6.25"/></g><defs/></svg>